<svg width="100" height="42" viewBox="0 0 100 42" xmlns="http://www.w3.org/2000/svg">
  <title>HP Enterprise</title>
  <g fill-rule="evenodd">
    <path d="M2.134 7.97H32V2.43H2.135v5.54zM0 10.1h34.134V.297H0v9.805z" fill="#00A97E"/>
    <path d="M55.39 35.186h3.436c-.046-1.02-.548-1.803-1.615-1.803-.98 0-1.63.737-1.82 1.803zm2.056 4.268c-2.023 0-3.404-1.35-3.404-3.514 0-2.165 1.287-3.67 3.153-3.67 1.9 0 2.887 1.364 2.887 3.387v.596h-4.738c.14 1.397 1.036 2.07 2.275 2.07.76 0 1.31-.17 1.93-.626h.04v1.145c-.57.44-1.3.612-2.15.612zm-6.62-4.173c.99.32 2.087.73 2.087 2.04 0 1.42-1.16 2.14-2.65 2.14-.91 0-1.82-.22-2.34-.63v-1.24h.064c.58.54 1.443.77 2.26.77.736 0 1.395-.28 1.395-.88 0-.61-.55-.75-1.63-1.11-.974-.31-2.056-.67-2.056-1.97 0-1.33 1.098-2.12 2.494-2.12.816 0 1.537.17 2.118.57v1.25h-.047c-.56-.45-1.22-.72-2.04-.72-.81 0-1.27.36-1.27.85 0 .55.51.71 1.62 1.07zm-5.946 4.04h1.31v-6.91h-1.31v6.91zm.65-9.69c.455 0 .83.36.83.82 0 .46-.376.82-.83.82-.44 0-.83-.36-.83-.81 0-.45.39-.81.83-.81zm-4.267 3.86c.298-.74.957-1.17 1.71-1.17.298 0 .565.05.675.11v1.28H43.6c-.188-.09-.502-.14-.816-.14-.705 0-1.3.47-1.52 1.26v4.5H39.96v-6.91h1.3v1.07zm-6.212 4.8c1.29 0 2.04-1.02 2.04-2.41 0-1.38-.75-2.41-2.04-2.41-.7 0-1.36.43-1.71 1.1v2.65c.35.68 1.01 1.08 1.71 1.08zm.22-6.01c2.06 0 3.16 1.68 3.16 3.6 0 1.92-1.1 3.6-3.15 3.6-.84 0-1.57-.44-1.93-.91v3.42h-1.3v-9.56h1.3v.79c.36-.48 1.09-.92 1.93-.92zm-6.81 1.21c.3-.74.96-1.17 1.71-1.17.3 0 .57.05.68.11v1.28h-.05c-.18-.09-.5-.14-.81-.14-.7 0-1.3.47-1.52 1.26v4.5h-1.31v-6.91h1.31v1.07zm-7.53 1.71h3.44c-.04-1.02-.55-1.8-1.61-1.8-.99 0-1.63.74-1.82 1.81zm2.06 4.27c-2.02 0-3.4-1.35-3.4-3.51s1.29-3.67 3.16-3.67c1.9 0 2.89 1.37 2.89 3.39v.6H20.9c.14 1.4 1.034 2.07 2.273 2.07.77 0 1.318-.17 1.93-.62h.047v1.15c-.564.44-1.3.62-2.148.62zm-6.01-7.04h1.77v1.12h-1.77v3.72c0 .79.41 1.05 1.15 1.05.2 0 .42-.03.58-.09h.05v1.12c-.18.08-.45.14-.81.14-1.61 0-2.26-.74-2.26-2.08v-3.85H14.5v-1.12h1.19V30.6h1.303v1.832zm-5.91-.14c1.56 0 2.42 1.02 2.42 2.7v4.35h-1.31V35c0-.896-.45-1.54-1.44-1.54-.81 0-1.5.52-1.74 1.256v4.596H7.69V32.41h1.3v1.004c.406-.643 1.097-1.145 2.07-1.145zM0 29.51h6.055v1.19h-4.69v2.996h4.25v1.16h-4.25v3.265h4.69v1.2H0v-9.81zm97.68-5.57v-2.244c-.345-.502-.8-.72-1.318-.72-.91 0-1.52.658-1.52 1.85 0 1.192.61 1.836 1.52 1.836.52 0 .973-.22 1.318-.723zm.063 1.647c-.44.565-1.13.878-2.07.878-1.79 0-2.934-1.63-2.934-3.64 0-2.007 1.14-3.654 2.93-3.654.91 0 1.57.28 2 .8V16.5h2.07v9.805h-2v-.722zm-7.92-5.13c.375-.768.924-1.208 1.693-1.208.282 0 .565.06.674.12v1.97h-.078c-.236-.1-.518-.16-.91-.16-.643 0-1.145.38-1.318 1.1v4.02h-2.07v-6.98h2.008v1.13zm-5.555 3.655v-.597c-.314-.172-.722-.235-1.145-.235-.675 0-1.083.25-1.083.814 0 .582.408.832 1.02.832.58 0 1.02-.298 1.208-.816zm.063 1.505c-.45.55-1.13.816-1.85.816-1.36 0-2.48-.83-2.48-2.304 0-1.37 1.12-2.28 2.72-2.28.5 0 1.02.08 1.56.24v-.13c0-.75-.42-1.08-1.53-1.08-.7 0-1.38.2-1.96.53h-.08v-1.67c.54-.32 1.48-.58 2.4-.58 2.1 0 3.25 1 3.25 2.76v4.38h-2.01v-.69zm-9.14-2.477v3.17h-2.07V16.5h2.07v5.585l2.09-2.76h2.35v.077l-2.51 3.17 2.51 3.654v.08h-2.37l-2.07-3.17zm-8.97-.315c0-2.243 1.59-3.655 3.66-3.655.74 0 1.43.156 1.95.532v1.773h-.08c-.45-.345-.99-.55-1.6-.55-1.03 0-1.82.707-1.82 1.9 0 1.19.79 1.882 1.82 1.882.61 0 1.15-.204 1.6-.55h.08v1.773c-.52.377-1.21.533-1.94.533-2.07 0-3.65-1.393-3.65-3.64zm-3.13 1.285v-.596c-.31-.172-.72-.235-1.14-.235-.67 0-1.08.25-1.08.81 0 .58.41.83 1.02.83.58 0 1.02-.3 1.21-.82zm.07 1.506c-.45.55-1.13.816-1.85.816-1.36 0-2.48-.83-2.48-2.306 0-1.365 1.12-2.275 2.72-2.275.5 0 1.02.08 1.56.24v-.12c0-.75-.42-1.08-1.53-1.08-.7 0-1.38.21-1.96.53h-.08v-1.67c.54-.31 1.48-.58 2.4-.58 2.11 0 3.25 1.01 3.25 2.76v4.38h-2v-.69zm-8.37-4.298c1.09 0 1.6-.61 1.6-1.49 0-.91-.51-1.522-1.6-1.522h-1.35v3.012h1.35zm3.77-1.49c0 2.133-1.42 3.294-3.59 3.294h-1.52v3.185H51.3v-9.805h3.654c2.166 0 3.593 1.16 3.593 3.326zm-12.28-.502h1.54v1.662h-1.54v2.84c0 .612.24.894.87.894.18 0 .39-.015.63-.094h.05v1.632c-.26.094-.67.203-1.27.203-1.68 0-2.34-.768-2.34-2.54v-2.935h-2.65v2.84c0 .612.24.894.87.894.17 0 .39-.015.63-.094h.05v1.632c-.26.094-.67.203-1.27.203-1.68 0-2.33-.768-2.33-2.54v-2.935h-1.1v-1.662h1.066v-1.914h2.07v1.914h2.65v-1.914h2.07v1.914zm-12.95 2.682h2.54c-.04-.72-.34-1.223-1.17-1.223-.63 0-1.17.266-1.36 1.223zm1.62 4.455c-2.16 0-3.64-1.364-3.64-3.607 0-2.18 1.45-3.687 3.36-3.687 2.09 0 3.12 1.39 3.12 3.48v.78h-4.46c.25 1.08 1.1 1.36 1.95 1.36.74 0 1.27-.16 1.93-.57h.08v1.61c-.56.41-1.36.61-2.33.61zm-5 0c-1.69 0-2.38-.674-2.38-2.258v-7.703h2.07v7.56c0 .488.19.66.6.66.14 0 .35-.046.47-.094h.03v1.71c-.17.063-.47.125-.78.125zm-8.58-4.267l-1.1 4.11H18.4l-2.134-6.902v-.078h2.04l1.16 4.125 1.1-4.12h1.66l1.114 4.13 1.18-4.12h1.96v.08l-2.133 6.9h-1.87l-1.112-4.11zm-10.02-.188h2.54c-.04-.72-.34-1.223-1.17-1.223-.624 0-1.173.266-1.362 1.223zm1.62 4.455c-2.16 0-3.64-1.364-3.64-3.607 0-2.18 1.45-3.687 3.36-3.687 2.09 0 3.12 1.39 3.12 3.48v.78h-4.46c.258 1.08 1.1 1.36 1.95 1.36.74 0 1.27-.16 1.93-.57h.08v1.61c-.562.41-1.362.61-2.34.61zm-10.79-.156H0v-9.805h2.133v3.875h3.813v-3.875H8.08v9.805H5.945v-4.063H2.133v4.063z" fill="#0A0A08"/>
  </g>
</svg>
