<svg width="17" height="17" viewBox="0 0 17 17" xmlns="http://www.w3.org/2000/svg"><path d="M8.5 0c1.542 0 2.964.38 4.267 1.14 1.302.76 2.333 1.791 3.093 3.093.76 1.302 1.14 2.725 1.14 4.267 0 1.542-.38 2.964-1.14 4.267-.76 1.302-1.791 2.333-3.093 3.093-1.302.76-2.725 1.14-4.267 1.14-1.542 0-2.964-.38-4.267-1.14-1.302-.76-2.333-1.791-3.093-3.093-.76-1.302-1.14-2.725-1.14-4.267 0-1.542.38-2.964 1.14-4.267.76-1.302 1.791-2.333 3.093-3.093 1.302-.76 2.725-1.14 4.267-1.14zm3.033 5.766l-.105.105-.149.105.05-.055.055-.122.039-.077c.044-.052.125-.107.243-.166.103-.044.295-.089.576-.133.251-.059.439-.018.564.122l.105-.144.16-.133.166-.05c.089-.018.144-.046.166-.083l.022-.243c-.089.007-.153-.018-.194-.077-.041-.059-.065-.137-.072-.232l-.066.089-.05-.089-.127.011-.1.011-.166-.083c-.037-.033-.066-.094-.089-.183l-.044-.166-.105-.116-.105-.116-.028-.061-.033-.072-.044-.061-.061-.028-.077.055-.083.111-.05.055-.066-.017-.05.011-.05.033-.055.039-.094.033-.094.022c.111-.037.107-.077-.011-.122l-.177-.033c.066-.03.094-.074.083-.133-.011-.059-.042-.111-.094-.155h.055l-.094-.094-.194-.094-.144-.066c-.059-.037-.184-.072-.376-.105s-.314-.035-.365-.006l-.05.116.044.155.039.138-.061.144-.072.133c0 .052.052.109.155.172.103.063.14.142.111.238-.022.059-.081.118-.177.177l-.177.133c-.037.059-.042.127-.017.205.026.077.065.138.116.183l.017.044-.039.05-.061.044-.072.039-.033.022c-.081.037-.157.015-.227-.066s-.12-.177-.149-.288c-.052-.184-.111-.295-.177-.332-.17-.059-.277-.055-.321.011-.037-.096-.188-.192-.454-.288-.184-.066-.398-.081-.642-.044.044-.007.044-.063 0-.166-.052-.111-.122-.155-.21-.133l.044-.194.011-.149c.022-.096.066-.181.133-.255l.077-.094.105-.149.006-.066c.258.03.443-.011.553-.122l.127-.188.116-.188.155-.061.16.061.16.055c.103.007.16-.033.172-.122.011-.089-.017-.162-.083-.221.089.007.1-.055.033-.188l-.089-.1c-.089-.03-.188-.011-.299.055-.059.03-.052.059.022.089l-.105.116-.183.194c-.059.044-.118.026-.177-.055l-.061-.149c-.033-.092-.068-.142-.105-.149-.059 0-.118.055-.177.166.022-.059-.018-.114-.122-.166-.103-.052-.192-.081-.266-.089.14-.089.111-.188-.089-.299-.052-.03-.127-.048-.227-.055-.1-.007-.172.007-.216.044l-.061.127.055.089.116.061.127.044.094.033c.103.074.133.125.089.155l-.094.039-.127.05-.066.044v.155c.022.074.015.125-.022.155l-.1-.194-.077-.183c.052.066-.041.089-.277.066l-.111-.011-.177.022-.227.011c-.063-.007-.113-.037-.149-.089-.03-.059-.03-.133 0-.221l.044-.022-.122-.105-.111-.094c-.339.111-.686.262-1.04.454l.133-.011.144-.072.111-.061c.251-.103.406-.129.465-.077l.055-.055.221.277c-.052-.03-.162-.033-.332-.011-.148.044-.229.089-.243.133.052.089.07.155.055.199l-.127-.111-.16-.122-.166-.055-.243.011c-1.077.59-1.944 1.409-2.601 2.457l.133.089.055.1.028.122.127-.033c.066.059.077.129.033.21.007-.007.17.092.487.299l.232.232c.022.081-.015.148-.111.199l-.1-.1-.1-.044c-.022.037-.02.105.006.205.026.1.065.146.116.138-.052 0-.087.059-.105.177-.018.118-.028.249-.028.393l-.011.26.022.011c-.022.089-.002.216.061.382s.142.238.238.216c-.096.022-.022.181.221.476l.089.1.133.083.166.111.111.116.111.249c.044.129.096.216.155.26-.015.044.02.118.105.221.085.103.124.188.116.255l-.028.011-.028.011c.022.052.079.103.172.155.092.052.149.1.172.144l.022.111.033.122.089.022c.015-.148-.074-.376-.266-.686l-.188-.321-.061-.172-.05-.16.066.017.094.039.083.044.022.033c-.022.052-.015.116.022.194l.133.205.188.21.133.144.155.216c.059.1.059.149 0 .149.066 0 .14.037.221.111.081.074.144.148.188.221.037.059.066.155.089.288l.055.266.094.149.138.105.177.089.144.077.205.116.238.127.177.044.16-.028.149-.039c.111-.015.218.041.321.166.103.125.181.203.232.232.266.14.469.181.609.122l.006.083.089.172.1.16.061.094.199.166.199.166.077-.1c-.022.059.004.133.077.221.074.089.14.125.199.111.103-.022.155-.14.155-.354-.229.111-.41.044-.542-.199l-.028-.061-.044-.094-.028-.094v-.083l.055-.033.111-.039-.022-.138-.044-.144c-.007-.059-.048-.133-.122-.221l-.133-.166c-.037.066-.096.096-.177.089-.081-.007-.14-.041-.177-.1l-.017.061-.017.072-.166-.011.028-.194.039-.249.061-.133.083-.16.044-.138-.05-.105c-.041-.026-.105-.035-.194-.028-.14.007-.236.081-.288.221l-.033.116-.055.127-.1.077c-.052.022-.14.03-.266.022-.125-.007-.214-.026-.266-.055-.096-.059-.179-.166-.249-.321s-.105-.291-.105-.41l.028-.293.033-.277c.004-.063-.017-.153-.061-.271l.1-.105.111-.116.05-.017h.05l.044-.017.033-.066-.044-.033-.044-.033c.052.022.157.017.315-.017.159-.033.26-.028.304.017.111.081.192.074.243-.022l-.028-.105-.006-.149c.037.199.144.232.321.1l.172.055.194.055.077.061.061.05.055-.006.094-.072c.074.103.118.192.133.266.081.295.151.457.21.487l.122.022.05-.105v-.155l-.017-.138-.011-.089v-.199l-.011-.089c-.111-.022-.179-.066-.205-.133-.026-.066-.02-.135.017-.205.037-.07.092-.138.166-.205l.089-.039.172-.072.138-.089c.155-.14.21-.269.166-.387.052 0 .092-.033.122-.1l-.055-.033-.083-.055-.05-.022c.066-.037.074-.096.022-.177l.083-.122.083-.111c.066.089.144.096.232.022.052-.059.055-.118.011-.177.037-.052.113-.09.227-.116.114-.026.183-.061.205-.105l.089-.022.011-.133.033-.133.166-.1.144-.055.188-.122v-.044c.133.015.247-.026.343-.122.074-.081.052-.155-.066-.221.022-.044.011-.079-.033-.105l-.166-.061.127-.006.116-.017c.111-.074.085-.133-.077-.177-.125-.037-.284.007-.476.133zm-1.804 9.706c1.52-.266 2.815-.963 3.885-2.092l-.138-.05-.138-.039-.266-.089-.028-.144-.089-.1-.138-.089-.122-.077-.077-.066-.077-.061-.083-.05-.094-.022-.111.011-.033.011-.061.028-.061.033-.044.033v.028c-.155-.125-.288-.207-.398-.243l-.122-.061-.116-.077-.111-.017-.127.077-.066.166-.022.144c-.052-.037-.052-.101 0-.194.052-.092.059-.16.022-.205-.022-.044-.061-.061-.116-.05l-.133.05-.127.094-.1.072-.094.061-.094.083-.066.133-.055.122-.127-.072-.105-.061.044.387c.015.184.033.325.055.421.052.229.007.406-.133.531-.199.184-.306.332-.321.443-.03.162.015.258.133.288 0 .052-.03.127-.089.227s-.085.179-.077.238l.022.177z" fill="#fff" opacity=".66"/></svg>
