<svg width="19" height="19" viewBox="0 0 19 19" xmlns="http://www.w3.org/2000/svg"><path d="M18 17h-3.978v-5.625c0-1.472-.622-2.477-1.991-2.477-1.047 0-1.629.678-1.9 1.332-.102.235-.086.561-.086.888v5.882h-3.941s.051-9.964 0-10.869h3.941v1.706c.233-.746 1.492-1.81 3.502-1.81 2.493 0 4.452 1.563 4.452 4.93v6.044zm-15.881-12.229h-.025c-1.27 0-2.093-.831-2.093-1.884 0-1.074.848-1.887 2.143-1.887 1.294 0 2.09.811 2.116 1.884 0 1.053-.821 1.887-2.14 1.887zm-1.665 1.36h3.508v10.869h-3.508v-10.869z" fill="#fff"/></svg>
