<svg class="button-icon" width="17" height="17" viewBox="0 0 17 17" xmlns="http://www.w3.org/2000/svg"><path d="M9 14.984v2.016h-1v-2.016c-3.542-.238-4-2.984-4-2.984h1s.5 2 3.5 2 3.5-2 3.5-2h1s-.458 2.746-4 2.984zm2-8.984v-3.997c0-1.109-.898-2.003-2.005-2.003h-.99c-1.111 0-2.005.897-2.005 2.003v3.997h-1v1h1v3.997c0 1.109.898 2.003 2.005 2.003h.99c1.111 0 2.005-.897 2.005-2.003v-3.997h1v-1h-1zm-7-.497c0-.278.232-.503.5-.503.276 0 .5.233.5.503v6.497h-1v-6.497zm8 0c0-.278.232-.503.5-.503.276 0 .5.233.5.503v6.497h-1v-6.497z" fill="#fff"/>
</svg>
