<svg width="20" height="20" viewBox="0 0 20 20" xmlns="http://www.w3.org/2000/svg"><path d="M14 8.5c0-1.514-.538-2.809-1.614-3.886-1.076-1.076-2.371-1.614-3.886-1.614-1.514 0-2.809.538-3.886 1.614-1.076 1.076-1.614 2.371-1.614 3.886 0 1.514.538 2.809 1.614 3.886 1.076 1.076 2.371 1.614 3.886 1.614 1.514 0 2.809-.538 3.886-1.614 1.076-1.076 1.614-2.371 1.614-3.886zm6 9.962c0 .417-.152.777-.457 1.082-.304.304-.665.457-1.082.457-.433 0-.793-.152-1.082-.457l-4.123-4.111c-1.434.994-3.033 1.49-4.796 1.49-1.146 0-2.242-.222-3.287-.667-1.046-.445-1.947-1.046-2.704-1.803-.757-.757-1.358-1.659-1.803-2.704-.445-1.046-.667-2.141-.667-3.287s.222-2.242.667-3.287c.445-1.046 1.046-1.947 1.803-2.704.757-.757 1.659-1.358 2.704-1.803 1.046-.445 2.141-.667 3.287-.667s2.242.222 3.287.667c1.046.445 1.947 1.046 2.704 1.803.757.757 1.358 1.659 1.803 2.704.445 1.046.667 2.141.667 3.287 0 1.763-.497 3.361-1.49 4.796l4.123 4.123c.296.296.445.657.445 1.082z" fill="#B5B3B2"/></svg>
