<svg width="179" height="22" viewBox="0 0 179 22" xmlns="http://www.w3.org/2000/svg"><path d="M8.814 10.48c-.475-.602-1.55-1.662-3.55-1.662-2.65 0-5.05 1.783-5.05 5.227 0 3.517 2.425 5.3 5.05 5.3 1.825 0 2.95-.94 3.55-1.686v1.397h1.8v-9.997h-1.8v1.421zm-3.35-.12c1.6 0 3.45 1.132 3.45 3.71 0 1.975-1.25 3.734-3.45 3.734-2.15 0-3.4-1.614-3.4-3.758 0-2.433 1.625-3.686 3.4-3.686zm17.5.12c-.475-.602-1.55-1.662-3.55-1.662-2.65 0-5.05 1.783-5.05 5.227 0 3.517 2.425 5.3 5.05 5.3 1.825 0 2.95-.94 3.55-1.686v1.397h1.8v-18.055h-1.8v9.479zm-3.35-.12c1.6 0 3.45 1.132 3.45 3.71 0 1.975-1.25 3.734-3.45 3.734-2.15 0-3.4-1.614-3.4-3.758 0-2.433 1.625-3.686 3.4-3.686zm8.05-1.301l5.1 10.648 5.1-10.648h-2l-3.1 6.745-3.1-6.745h-2zm21.05 1.421c-.475-.602-1.55-1.662-3.55-1.662-2.65 0-5.05 1.783-5.05 5.227 0 3.517 2.425 5.3 5.05 5.3 1.825 0 2.95-.94 3.55-1.686v1.397h1.8v-9.997h-1.8v1.421zm-3.35-.12c1.6 0 3.45 1.132 3.45 3.71 0 1.975-1.25 3.734-3.45 3.734-2.15 0-3.4-1.614-3.4-3.758 0-2.433 1.625-3.686 3.4-3.686zm8.636 8.696h1.8v-5.227c0-.723.05-1.903.75-2.698.525-.602 1.2-.771 1.825-.771.8 0 1.35.289 1.7.723.425.53.475 1.229.475 1.831v6.143h1.8v-6.191c0-1.108-.075-1.927-.6-2.674-.625-.891-1.75-1.373-2.975-1.373-1.725 0-2.65.988-2.975 1.397v-1.156h-1.8v9.997zm20.789-9.275c-.5-.337-1.575-.964-3.225-.964-3.2 0-5.55 2.24-5.55 5.3 0 3.011 2.325 5.227 5.55 5.227.975 0 2.175-.241 3.3-1.036v-2.072c-.95 1.108-2.275 1.566-3.35 1.566-1.85 0-3.65-1.277-3.65-3.71s1.75-3.734 3.675-3.734c.925 0 2.3.337 3.25 1.494v-2.072zm11.525 5.926c-.225.482-.6.988-1.075 1.373-.6.482-1.275.723-2.125.723-1.8 0-3.275-1.325-3.3-3.397h8.075c.05-1.325-.325-2.867-.975-3.758-.625-.867-1.9-1.831-3.925-1.831-3.125 0-5.025 2.313-5.025 5.3 0 3.71 2.625 5.227 5.125 5.227 1.325 0 2.5-.41 3.45-1.229.525-.458.975-1.06 1.275-1.614l-1.5-.795zm-6.375-2.746c.275-1.494 1.525-2.602 3.05-2.602s2.75 1.036 3.05 2.602h-6.1zm12.061 9.039h1.5v-21.999h-1.5v21.999zm6.964-13.026h2.417v.932c.465-.469.863-.787 1.192-.952.351-.173.791-.259 1.321-.259 1.182 0 2.116.497 2.804 1.491.759-.994 1.787-1.491 3.083-1.491 2.356 0 3.534 1.377 3.534 4.13v6.231h-2.428v-5.6c0-.966-.122-1.649-.365-2.05-.251-.407-.662-.611-1.235-.611-.666 0-1.151.242-1.456.725-.304.483-.457 1.259-.457 2.329v5.207h-2.428v-5.569c0-1.794-.537-2.691-1.611-2.691-.68 0-1.176.245-1.488.735-.312.49-.467 1.263-.467 2.319v5.207h-2.417v-10.082zm27.931 5.59h-7.498c.064.828.344 1.487.838 1.977.494.483 1.128.725 1.901.725.602 0 1.099-.138 1.493-.414.387-.276.827-.787 1.321-1.532l2.041 1.097c-.315.518-.648.961-.999 1.33-.351.369-.727.673-1.128.911-.401.238-.834.412-1.3.523-.465.11-.97.166-1.515.166-1.561 0-2.814-.483-3.76-1.449-.945-.973-1.418-2.263-1.418-3.871 0-1.594.458-2.884 1.375-3.871.924-.973 2.148-1.46 3.674-1.46 1.54 0 2.757.473 3.652 1.418.888.939 1.332 2.239 1.332 3.902l-.011.549zm-2.481-1.905c-.337-1.242-1.149-1.863-2.438-1.863-.294 0-.569.043-.827.129-.258.086-.492.21-.704.373-.211.162-.392.357-.542.585-.15.228-.265.486-.344.776h4.855zm13.837-11.658h2.428v18.055h-2.428v-1.056c-.952.897-2.03 1.346-3.233 1.346-1.432 0-2.621-.504-3.566-1.511-.938-1.028-1.407-2.312-1.407-3.851 0-1.504.469-2.76 1.407-3.768.931-1.014 2.102-1.522 3.513-1.522 1.225 0 2.32.483 3.287 1.449v-9.143zm-5.736 12.983c0 .966.269 1.753.806 2.36.551.614 1.246.921 2.084.921.895 0 1.618-.297 2.17-.89.551-.614.827-1.394.827-2.339 0-.945-.276-1.725-.827-2.339-.551-.6-1.268-.901-2.148-.901-.831 0-1.525.304-2.084.911-.551.614-.827 1.373-.827 2.277zm14.632-5.01v10.082h-2.417v-10.082h2.417zm-2.782-4.192c0-.407.154-.759.462-1.056.308-.297.677-.445 1.106-.445.437 0 .809.148 1.117.445.308.29.462.645.462 1.066 0 .421-.154.78-.462 1.077-.301.297-.67.445-1.106.445-.437 0-.809-.148-1.117-.445-.308-.297-.462-.659-.462-1.087zm14.986 4.627v3.095c-.551-.649-1.046-1.094-1.482-1.335-.43-.248-.935-.373-1.515-.373-.91 0-1.665.307-2.267.921-.602.614-.902 1.384-.902 2.308 0 .945.29 1.722.87 2.329.587.607 1.336.911 2.245.911.58 0 1.092-.121 1.536-.362.43-.235.935-.69 1.515-1.366v3.074c-.981.49-1.962.735-2.943.735-1.618 0-2.972-.504-4.061-1.511-1.089-1.014-1.633-2.274-1.633-3.778s.551-2.774 1.654-3.809c1.103-1.035 2.456-1.553 4.061-1.553 1.031 0 2.005.238 2.922.714zm11.055-.435h2.428v10.082h-2.428v-1.056c-.995.897-2.066 1.346-3.212 1.346-1.447 0-2.643-.504-3.588-1.511-.938-1.028-1.407-2.312-1.407-3.851 0-1.511.469-2.771 1.407-3.778.938-1.008 2.113-1.511 3.523-1.511 1.217 0 2.31.483 3.276 1.449v-1.17zm-5.736 5.01c0 .966.269 1.753.806 2.36.551.614 1.246.921 2.084.921.895 0 1.618-.297 2.17-.89.551-.614.827-1.394.827-2.339 0-.945-.276-1.725-.827-2.339-.551-.6-1.268-.901-2.148-.901-.831 0-1.525.304-2.084.911-.551.614-.827 1.373-.827 2.277zm14.332-12.983v18.057h-2.5v-18.057h2.5z" fill="#fff"/></svg>
