<svg width="227" height="312" viewBox="0 0 227 312" xmlns="http://www.w3.org/2000/svg"><g fill="none"><path d="M163.643 256.581l10.284 1.582 1.187 9.427s-8.372 1.121-11.872 3.165c-3.499 2.043-6.653 2.768-12.784 2.307-6.131-.461-6.328-3.362-6.131-5.472.198-2.109 4.351-3.494 5.472-4.036 1.121-.543 13.844-6.973 13.844-6.973zm15.492 33.819l5.933-2.703s0-.527 4.615-16.613c6.394.066 8.834 4.154 9.559 6.527.725 2.373-1.714 8.636-1.714 8.636h-.791s-1.451 1.12-3.296 9.954c-1.846 8.834-10.68 17.338-14.24 15.163-3.56-2.176-.264-10.284-.066-12.987.041-.562 0-7.977 0-7.977z" id="Combined-Shape" fill="#183561"/><path d="M125.702 5.185c4.837-5.644 19.334 8.997 19.334 8.997l-4.456 21.342s-.537 1.343-.806 2.418c-.269 1.075-4.031 6.181-5.643 6.987-1.613.806-5.053 4.731-5.053 4.731l-1.397-1.506-4.031-2.956-.806-2.687c-4.837 0-6.719-3.763-6.45-6.181.269-2.419-.371-7.009-.371-9.428 0-2.418 2.938-8.453 4.013-9.796 1.075-1.344.828-6.278 5.666-11.921zm-87.17 44.505l5.204 6.071-6.288 5.421s-6.939-3.469-8.457-3.903c-1.517-.434-5.854.217-7.155 0-1.301-.217-3.903-.867-4.77-.867-.868 0-4.012 0-6.505-.542-2.494-.542-3.903-1.952-2.928-2.819.976-.867 4.12 0 4.12 0s-1.518-.759-2.06-.976c-.542-.217-3.144-.542-4.336-.867-1.193-.325-2.602-1.468-2.494-3.03-4.011-.103-2.927-2.283-1.969-2.825.958-.542 4.896 0 5.547 0l4.445.759c1.192.109 3.361-.108 3.361-.108s-.434-.651-1.301-.651c-.868 0-2.602-.217-3.253-.217-.65 0-3.144-.65-5.854-.758-2.711-.109-3.036-1.193-2.927-2.169.108-.975 2.385-1.301 3.469-1.301s3.252.434 3.794.434c.543 0 4.229.434 5.421.867 1.193.434 4.662.513 4.662.513s-1.843-.404-3.144-.838c-1.301-.434-3.144-3.036-3.795-4.011-.65-.976 1.085-2.169 1.085-2.169s3.361 1.41 4.228 2.06c.867.651 5.746 1.735 7.372 1.843 1.627.109 3.903 3.144 4.987 3.578 1.085.434.868 2.06 3.687 4.553 2.818 2.494 5.854 1.952 5.854 1.952z" id="Combined-Shape" fill="#D6B3A5"/><path d="M116.874 39.004s-.678 6.908.45 8.796c1.128 1.889 6.993 36.31 6.993 36.31l16.965-42.934-4.722 4.258-4.131 3.423-6.391-.469-4.468-3.072-2.985-4.14-1.711-2.172z" fill="#183561"/><path d="M119.21 44.843c1.534 1.77 1.496 2.892 2.559 3.6 1.062.708 5.341 6.309 5.341 6.309l8.978-6.598s2.597-2.485 2.951-2.603c.354-.118 2.242-3.087 2.242-4.376 0-1.289-1.063-4.678-1.063-4.678s-2.148 4.284-2.835 5.132c-.688.848-2.958 2.919-3.497 3.214-.539.295-3.196 3.088-4.808 3.088-1.613 0-3.44-1.275-3.972-1.665l-1.456-1.068-.806-2.688s-3.283-.361-4.259-1.335c0 0-.91 1.897.625 3.668z" fill="#2D669B"/><path d="M102.957 166.935s-.806 10.749 0 13.705c.806 2.956 1.344 7.794 2.15 9.137.806 1.344 4.3 9.137 4.837 12.362.538 3.225 1.612 6.987 1.881 9.406.269 2.419 1.344 7.256 1.344 7.256s7.256 4.568 10.481 3.225c3.224-1.344 4.031-3.763 4.299-4.569.269-.806-2.418-16.93-2.418-20.693 0-3.762-4.3-16.124-4.3-16.124l3.225-20.423s11.824 26.336 11.824 28.754c0 2.419-.806 11.825 0 16.662s2.956 23.917 2.956 27.679v5.106s9.943.807 12.631 0c2.687-.806 3.493-6.924 3.493-6.924l2.956-47.323-4.837-25.298-19.534-25.799-21.314-4.568-9.674 38.429z" fill="#183561"/><path d="M116.022 217.994l11.927-.537s1.344 7.255 0 9.136c-1.344 1.882-6.987 4.569-6.987 4.569v-1.098c-2.15.635-2.876 5.688-6.567 8.048-2.035 1.301-11.707 3.531-11.797-1.575-.089-5.106 4.121-8.062 5.465-9.675 1.343-1.612 7.959-8.868 7.959-8.868zm25.259 20.565l12.198-5.785s0 9.137.537 17.179c.538 8.042-2.687 12.113-9.674 11.038-6.987-1.075-3.703-11.123-3.061-14.512.765-4.039 0-7.92 0-7.92z" id="Combined-Shape" fill="#321F0F"/><path d="M117.745 45.24l-.872-6.236s-.503-1.241-.491-1.957c-8.386 1.305-8.504 1.31-10.393 1.957-1.888.646-3.659 1.354-4.839 1.472-1.18.118-4.721 1.771-5.784 2.479-1.062.708-1.652.27-3.777 1.67-2.124 1.399-5.075 3.417-5.901 3.529-.826.112-3.541 1.529-4.013 1.765s-3.659 2.833-4.84 2.833c-1.18 0-2.124-.827-3.895 0-1.77.826-2.832 1.18-3.541 1.18-.708 0-5.901-.472-8.026-.472-2.124 0-8.97-.708-10.741-1.299-1.77-.59-5.901-1.062-6.727-1.652-.827-.59-3.187-1.889-4.132-2.066-.944-.177-3.304-1.121-3.304-1.121l-2.351 1.401s1.149.862 2.92 1.126l1.566.07s2.506 7.107-2.653 10.458l-4.338-1.992s-.101 2.511 1.552 3.927c1.652 1.417 4.603 2.479 6.019 2.597 1.417.118 4.249 1.298 5.43 1.652 1.18.354 6.846 3.541 8.498 3.541 1.653 0 3.777-.118 5.548.472 1.77.591 2.832 1.653 4.485 1.653 1.652 0 16.165-1.535 17.112-1.771.947-.236 13.93-1.416 13.93-1.416s5.902 42.727 5.902 45.796c0 3.069-1.417 30.721-1.417 31.944 0 1.223-.991 21.17-.991 21.17s11.496 3.777 12.558 3.541c1.063-.236 4.722-24.711 4.722-24.711l6.491 31.321s15.463 5.076 19.83 5.902c4.367.826 11.921-1.653 11.921-1.653l7.318-117.205 1.18-14.164-20.911-12.476s-2.373 8.088-16.065 42.435l-6.979-35.7z" fill="#E5E8EB"/><path d="M163.906 248.868s-.066 7.12-.264 7.713-8.194 4.615-9.568 5.604c-1.375.989-.123 1.648 3.899 1.252 4.021-.395 14.635-2.307 14.964-2.571.33-.264-9.031-11.998-9.031-11.998" fill="#B59374"/><path d="M187.244 267.59l2.439 3.494s-.944 9.51-1.1 13.712c-.198 5.34-2.52 13.253-6.745 14.24-2.924.683-2.703-6.527-2.703-8.636 0-2.11.396-11.273.396-11.273l-3.362-7.12 11.075-4.417z" fill="#B59374"/><path d="M152.634 19.872c-1.612.672-4.578 5.924-4.757 9.834-.128 2.819-.484 6.968-2.365 8.58-1.881 1.613-3.652 2.553.782 5.24-.326.663-.744 1.191-.912 1.387-.434.506-.086 1.063-.086 1.063l.305.348c.009.129-.995.89-.055 1.83.941.941-1.028 3.674.45 5.824s2.288 2.388 7.91 2.841c5.763.464 3.473 6.847 3.473 6.847l-2.783 12.214 31.576-13.437-1.344-2.15s-9.943-.672-10.749-4.165c-.806-3.494-13.034-39.101-13.034-39.101l-8.411 2.845z" fill="#B59374"/><path d="M148.211 27.768c.466-1.215 2.199-5.409 4.504-7.113 3.091-2.284 4.484-2.279 4.484-2.279s-1.488 4.532 2.976 12.643c3.592 6.527 5.326 25.921-2.796 32.647 17.326-1.853 24.711-4.792 27.66-17.507 6.728-29.005-12.841-35.313-25.068-31.282-5.945 1.96-8.919 5.141-10.405 7.892 1.051-3.357 2.875-9.584 2.301-11.454-.989-3.223-3.765-7.502-7.925-9.924-2.349-1.368-4.195-1.739-13.791-.974l-.352.029s-3.747.742-5.098 0c-1.147 1.08-.47 5.066.643 5.741 1.113.675 3.312 2.06 6.08 2.937 2.768.878 8.165-.057 9.007 2.799.851 2.88 1.928 7.756-.097 10.322-2.026 2.565-1.455 2.977-1.928 3.855-.472.878 2.025-1.35 3.173-1.418 1.148-.067.878 2.971-.607 4.996-1.486 2.025-.135 5.164-.392 5.846 2.153-1.449 3.507-2.382 4.172-3.072.665-.691 2.824-3.068 3.334-4.349l.125-.335z" id="Combined-Shape" fill="#321F0F"/><path d="M184.887 60.214c-3.26 1.472-5.845 3.124-4.636 18.24 1.21 15.117 4.031 21.969 4.636 25.194.605 3.225-2.264 14.899-1.962 16.007.302 1.109 16.326 4.406 16.326 4.406s2.919-9.775 3.02-11.791c.101-2.015-4.854-4.994-4.854-4.994s.191-23.385.079-27.008c-.111-3.623-2.741-11.714-6.386-16.115-3.644-4.401-6.223-3.939-6.223-3.939" fill="#2D669B"/><path d="M127.143 104.588l2.278 13.309s-6.537-4.237-12.547-7.944c-6.011-3.707-16.633-13.025-17.535-13.226-.901-.2-8.416-2.404-8.816-2.404-.401 0-8.617-.701-8.617-.701l-3.206-2.205-3.106-2.104 1.203-.501-1.203-1.502c1.102-.802 3.106 1.402 3.106 1.402l2.906 1.403 2.004.549-2.104-2.353s-.802-1.302-2.806-4.508c2.305-.401 3.407 2.004 3.407 2.004l2.705 2.705 2.404 1.403 1.303-1.103s-.802-2.204-.802-2.604c0-.401-.3-2.505-1.202-5.511 2.104.2 3.106 3.306 3.306 4.308.201 1.002 2.004 3.707 2.004 3.707s2.805-.401 4.838-.501c2.032-.1 3.177 1.102 8.087 5.21 4.909 4.108 22.393 11.167 22.393 11.167zm70.217 17.444c-1.799-5.996 2.097-9.485 2.097-9.485s1.754-3.089 6.148-2.821c0 0 2.116-.605 4.333-.807 2.217-.201 6.147 1.411 7.256 2.419 1.108 1.008 4.434 2.015 7.256 3.023 2.821 1.008 1.914 2.419 1.007 2.923s-4.131.705-6.046-.303c-1.915-1.007-3.83-.907-3.83-.907v1.31l1.31 4.838s1.613 3.023 1.008 4.031c-.604 1.008-1.108 1.108-2.519 1.411-1.411.302-2.116-2.52-2.116-2.52s0 .806-.605 1.31-2.519 1.31-4.636-.504c-.302.706-2.864 1.422-5.751.925-2.18-.375-3.985-1.753-4.912-4.843z" fill="#B59374"/><path d="M148.166 121.909s-1.448 2.275-4.722 2.614c-3.275.339-4.193-.764-5.114-.322-.921.441-4.224.11-5.256 1.093-1.033.982-4.619 3.482-5.552 3.655-.932.174-3.829 1.503-3.829 1.503s-.259 1.823.754 1.982c1.014.159 3.78.512 4.829-.069 1.05-.581 2.401-1.528 2.401-1.528s-2.105 2.187-3.09 2.698c-.985.511-3.447 2.628-3.767 2.977-.321.349-1.884 1.488-2.526 2.186-.642.698-1.78 2.357-1.216 3.004.564.648 1.454 1.08 3.129-.601 1.674-1.681 3.569-2.901 3.954-3.32.385-.419 1.552-1.407 2.065-1.966.514-.558 1.19-.452 1.19-.452s-1.145 1.524-1.92 2.228l-3.121 2.413c-.385.418-3.065 2.633-3.283 3.571-.219.938.543 2.926 2.984.404.941.995 2.512.764 3.427.189.915-.576 2.665-2.058 3.126-2.279.46-.221 1.848-.749 1.848-.749s-2.42 1.511-2.439 2.653c-.02 1.142 1.722 1.068 3.547-.216 1.826-1.285 3.687-3.309 4.2-3.867.514-.559 2.473-1.849 3.383-2.558.91-.71 3.058-3.887 4.236-4.607 1.178-.721 7.519-3.134 7.519-3.134l.233-7.258-6.99-.244z" fill="#D6B3A5"/><path d="M148.172 141.002c-.271 1.323-3.397 7.977-3.102 16.692.295 8.715 6.943 43.723 6.943 45.643 0 1.92-2.512 8.272-.739 17.726 1.773 9.453 24.668 52.438 24.668 52.438s7.533 1.625 12.113-5.761c0 0-1.921-4.136-5.318-15.362-3.398-11.226-6.499-22.425-11.226-34.921 5.76-25.346 19.941-29.778 22.748-53.264 2.806-23.486-15.806-35.687-15.806-35.687l-30.281 12.496z" fill="#183561"/><path d="M157.379 63.666s-6.969 2.353-9.79 3.697c-2.822 1.344-9.809 14.646-10.212 19.886-.403 5.241-6.674 16.528-6.629 17.199.045.672-1.38.807-1.38.807s-2.086-1.124-2.545-.797c-.403 1.075-2.787 8.086-.502 11.445 4.824 3.575 5.375 3.592 6.264 3.287 3.897-1.337 14.718-18.504 14.718-18.504s-.164 35.608-.745 41.117c29.785 11.824 46.581 3.359 46.581 3.359s-2.553-28.486-2.015-31.173c.537-2.688 6.293-6.713 6.293-6.713s.284 1.626.291-22.445c.002-10.034-2.665-20.944-6.085-23.784-3.889-3.23-6.68-3.09-16.758 2.419-10.077 5.51-21.156 14.427-17.486.2" fill="#2D669B"/></g></svg>
