<svg width="246" height="284" viewBox="0 0 246 284" xmlns="http://www.w3.org/2000/svg"><g fill="none"><path d="M184.696 150.37l2.766-.326 9.023 6.407 13.765-1.248 5.962-10.122h2.194l-5.424 10.094 17.625-3.882 10.169-10.071h1.007l-9.274 10.339 13.117-1.062-.133 1.821-35.9 8.727 26.423 14.911 9.189 3.106-7.155 5.818 7.155 7.256-5.122 4.04s11.524 11.614 0 10.653c-11.524-.962-27.793-6.111-27.793-6.111l4.745 6.111h-12.202s9.491 6.396 0 6.422c-9.49.026-6.778-.802-11.524 0-4.745.803-4.067 10.845-11.524 8.041-7.456-2.804-171.141-36.412-171.141-36.412l-8.479-8.924-2.165-8.541 2.165-6.212s1.338-6.211 1.58-10.87c.242-4.659 5.336-3.083 5.336-3.083l-1.575-6.365 1.575-5.305s-3.544-.776 0-8.541c3.544-7.764 11.369-12.423 14.702-14.491 3.332-2.069 51.226 14.235 51.226 14.235l10.16-8.929 2.375-.132-8.187 8.799 28.556-1.711v1.518s-12.492 1.027-27.389 2.579c5.928 0 32.243 4.386 46.238 6.673 11.07 1.81 8.467 2.094 19.178 3.28 10.712 1.185 14.462 5.908 14.462 5.908l7.826 2.482 16.468 3.118zm-149.425 112.297l15.177-3.519s2.2 3.739 4.115 4.399c1.916.66 3.364 2.859 5.563 4.179 2.2 1.32 8.139 4.839 8.799 7.259.659 2.419-.44 6.158-3.08 7.918-2.639 1.76-8.358 0-10.118 0-1.76 0-7.039-2.728-9.018-4.399-1.98-1.671-11.438-6.819-11.438-9.018v-6.819zm31.014-36.953l13.197-8.578 2.42 1.099s8.798 1.98 12.758 1.98c3.959 0 4.839 1.54 5.498 4.179.66 2.64-2.199 4.619-9.164 6.599-6.964 1.98-12.501-.44-12.501-.44l-.743 1.98s-8.166 1.539-10.145 0c-1.98-1.54-1.32-6.819-1.32-6.819z" id="Combined-Shape" fill="#321F0F"/><path d="M131.631 195.738l-.928 2.575s-4.336 4.832-6.108 7.073c-2.253 2.847-6.703 6.251-9.414 5.095-1.877-.8 1.139-4.662 1.986-5.818.847-1.156 4.736-6.636 4.736-6.636l.917-2.816c2.296 1.216 6.982.764 8.811.527z" fill="#DAD9D8"/><path d="M117.167 204.663s-2.955 4.08-3.203 4.372c-1.194 1.401-6.256 4.522-5.178 7.143 1.077 2.622 9.333 1.508 13.891-2.592 4.559-4.1 5.804-4.132 5.804-4.132l.433.318s3.852-2.453 4.407-4.045c.556-1.591.86-4.811-2.618-7.414-8.987 6.962-13.536 6.35-13.536 6.35z" fill="#183561"/><path d="M166.53 106.248c.666 1.773 5.583 7.466 5.325 16.913-.259 9.447-9.577 17.212-15.141 19.929-5.565 2.718-10.773 6.859-10.773 6.859s-.486 9.576-2.556 17.729c-2.071 8.152-11 27.952-11 27.952s-8.541 1.423-10.482-1.165c7.635-33.128 8.282-37.14 8.541-39.34.259-2.2 2.071-12.941 4.012-15.399l1.768-2.24-3.691-.872.37-20.958 33.627-9.408z" fill="#183561"/><path d="M131.997 54.575c-1.165.388-8.671 6.988-8.671 6.988l-9.317 15.4-1.423 3.158-1.392 8.391s4.368.939 5.533 0c1.164-.938 12.035-13.62 12.035-13.62s-2.718 8.282.388 15.141 3.106 26.399 3.106 26.399 15.399-1.035 20.446-2.717c5.047-1.683 9.059-6.6 14.106-6.73-2.459-6.47-3.883-11.258-4.4-11.517-.518-.259-.777-1.682-.518-2.329.259-.647-.259-.389.129-1.812.389-1.424 4.271-15.011 4.789-16.047.517-1.035 2.329-3.376 2.329-6.67s-.453-11.576-10.191-10.282c-9.738 1.294-22.42-3.753-22.42-3.753s-3.365-.388-4.529 0z" fill="#2D669B"/><path d="M111.041 77.72l4.23 1.474s1.359 2.233.485 6.018c-.873 3.785-4.561 3.3-4.561 3.3l-6.362-4.859c1.625-1.518 3.654-3.45 6.208-5.933zm20.59 118.018l-.928 2.575s-4.336 4.832-6.108 7.073c-2.253 2.847-6.703 6.251-9.414 5.095-1.877-.8 1.139-4.662 1.986-5.818.847-1.156 4.736-6.636 4.736-6.636l.917-2.816c2.296 1.216 6.982.764 8.811.527zm-7.295-132.803l2.678.342s4.076.776 4.95.874c.873.097 7.861 2.329 9.9 2.814 2.038.485 9.608 2.232 9.996 2.232v.001s4.336 1.353 4.336 3.588c0 2.235-1.974 3.277-1.942 4.824.033 1.547-2.782 2.361-2.782 2.361h.001c-.002 0-1.847 1.163-10.192-3.009-8.347-4.173-11.841-6.6-11.841-6.6l-2.504-1.2c-.305-.909-1.375-2.419-2.088-2.808-.907-.495-4.372-2.639-4.372-2.639s2.64.247 3.382.082c.331-.074.449-.458.478-.862zm30.686-7.538c.909.983 2.178 1.94 3.923 2.931-13.297 11.259-16.597 6.018-17.664 5.435-1.068-.582-2.135-5.144-4.271-7.085-2.135-1.941-2.814-4.27-2.523-5.144.291-.873-.291-2.523-.874-3.203-.182-.213-.317-.844-.416-1.611l.042.296c-.014-3.429.582-5.684 1.324-7.162 1.196-2.386 2.772-2.745 2.772-2.745l5.043-.434s10.801 21.979 12.644 18.722zm-60.347 17.644l-.016-.005s1.485-5.114 1.732-5.334c.248-.22 1.485 0 1.485 0s.825-.357 1.65-.11c.62.186 2.36.092 3.185.034-1.248 1.399-2.838 3.099-3.473 3.428-.594.307-2.629 1.178-4.562 1.987z" id="Combined-Shape" fill="#B59374"/><path d="M37.694 32.987s1.32-3.959 1.76-9.898c.44-5.939.22-14.517 5.279-18.257 5.059-3.739 15.837-5.279 21.995 0 6.159 5.279 1.809 10.554 4.339 10.334 2.463 2.191 5.051 3.603 5.051 3.603s-.591 9.159-1.031 10.699c-.44 1.539-3.52 3.959-3.52 4.839 0 .88 2.64 7.478 1.32 8.138-1.32.66-3.959 0-3.959 0l-1.54 2.42h-2.199s1.319 1.1 1.099 1.979c-.219.88-2.199 1.98-2.199 1.98s0 2.639-1.54 3.519c-1.54.88-4.827 0-4.827 0s-21.43-12.801-20.028-19.356zm51.851 38.894s2.31-2.969 2.805-3.711c.495-.743 4.206-2.31 4.784-2.722.577-.413 3.052.742 3.712.742.66 0 1.649-.33 1.649 0s.33 1.402-1.072 1.402c-1.402 0-5.031 7.671-5.031 7.671l-13.476 1 6.629-4.382zm17.074-6.104s2.639-1.155 3.134-1.567c.495-.413 1.568-1.732 2.392-1.98.825-.247 2.805-.99 3.63-1.485.825-.494 4.041-.412 5.031-.412.99 0 1.073 1.072 1.65 1.155.577.082 1.815.412 1.815.412s.33 1.732-.413 1.897c-.742.165-3.382-.082-3.382-.082s3.465 2.144 4.372 2.639c.907.495 2.392 2.805 2.145 3.382-.248.578-.66 2.386-1.403 2.1-.742-.285-2.474-1.357-2.474-1.357s.33 1.484-.413 1.814c-.742.33-1.072.495-1.649 1.32-.578.825-1.073.33-1.815 1.485-.742 1.154-1.439 1.402-3.112 1.402-1.672 0-5.219-1.402-5.219-1.402l-4.289-9.321z" id="Combined-Shape" fill="#D6B3A5"/><path d="M142.379 36.675c-2.934 3.247 3.949 5.444 1.523 10.006-.958-4.88-5.629-2.579-6.566-9.572 0 0-1.576.359-2.772 2.745-.742 1.478-1.338 3.733-1.324 7.162-.952-6.721-1.062-7.05-1.062-8.421 0-1.372.543-5.033 1.339-6.473.981-1.774 1.844-4.755 3.819-5.374 1.309-.41 3.946-2.596 6.178-2.293 5.726-1.068 7.443 2.17 11.064 5.338 3.882 3.397 8.347 24.609-8.152 34.164 2.426-7.668 2.232-11.841-.486-17.849-1.268-2.804-3.561-8.555-3.561-9.433zm-8.928 11.323s1.262 1.793 1.376 3.153c.133 1.577.54 4.103 1.975 5.33 1.435 1.227 2.344 3.398 2.344 3.398s-1.979 1.673-6.211 3.616c1.778-3.563.516-15.497.516-15.497zm-84.16-46.572c7.766-3.916 20.403 1.099 23.161 4.635 2.019 2.588 4.608 5.804 4.765 10.511.1 3.004 1.568 3.891 1.568 3.891s-1.882.502-6.51-2.714c-6.984-4.853-13.937.627-15.402 7.67-.41 1.97-.617 2.37-.617 2.37s-1.871-.822-2.567-3.093c.024-1.332-.765-3.125-2.677-2.275-2.118.941-.036 5.221-3.015 7.331-2.979 2.11-8.029 1.835-10.106 2.578 0 0 .919-3.278.976-6.798.699-21.133 5.21-21.027 10.424-24.106z" id="Combined-Shape" fill="#321F0F"/><path d="M71.037 169.608s2.066 9.255 2.066 11.454v6.159s-.66 6.898 6.379 29.914c-1.98 11.438-14.297 11.658-15.177 8.693-.88-2.966-7.259-29.369-7.259-29.369l-6.378 17.377s-1.76 2.859-1.76 3.519c0 .66.44 2.86.44 5.719 0 2.86 1.1 5.279 3.519 37.393-9.018 6.159-22.435 3.959-21.594 1.32.842-2.64-.621-23.316-1.501-35.853-.88-12.538 3.079-29.035 3.079-29.035l.186-8.192c2.163-.075 38.02-17.335 38-19.1z" id="Combined-Shape" fill="#183561"/><path d="M76.609 92.113c6.588 1.766 12.771 3.276 12.771 3.276s1.567-.577 3.382-1.649c1.814-1.073 3.877-2.557 4.949-3.712 1.072-1.155 2.392-1.65 13.775-12.741.825-3.337-.66-9.86-2.392-11.015-1.733-1.154-4.702-.577-4.702-.577s-4.042 4.784-5.155 5.359c-1.114.575-7.3 3.137-8.372 3.549-.473.182-1.793.3-3.151.332-.086-1.224-.336-2.167-.929-1.902-1.093.489-2.119.938-3.063 1.344-1.305-.795-6.336-2.879-7.292-3.323-1.072-.497-6.681-3.544-16.167-13.69-2.036-2.177-4.125-3.91-6.191-5.275-.188-.817-.309-1.585-.356-2.296-14.554-9.494-16.022-16.806-16.022-16.806l-2.107.661s-2.404 7.632-7.41 13.903c-3.796 4.754-7.094 23.093-7.094 24.697 0 1.604 0 30.895-.33 34.689-.33 3.794-2.804 11.878-2.474 17.322.33 5.444-.165 14.352 0 16.826.165 2.475 1.65 43.882 1.65 43.882s3.464 2.805 5.609 3.464c2.144.66 10.887.165 12.042 0 1.155-.165 15.342-1.484 17.652-1.814 2.309-.33 11.877-9.238 11.877-9.238l-1.814-29.2 2.639 24.91s3.3-1.814 3.094-3.629c-.207-1.815-1.939-14.847-3.094-22.106-1.154-7.258-3.629-50.233-3.629-50.233s2.722-.824 3.464-1.072c.58-.193 6.346-2.803 8.84-3.936z" fill="#E5E8EB"/></g></svg>
