<svg width="228" height="309" viewBox="0 0 228 309" xmlns="http://www.w3.org/2000/svg"><g fill="none"><path d="M153.627 259.572c.674 2.788 1.515 6.101 2.405 9.213 2.108 7.365-.074 11.793-6.781 12.192-6.707.399-5.666-9.595-5.747-12.872-.042-1.663-.335-3.244-.659-4.512 1.727.37 4.199.379 7.156-1.081 1.698-.839 2.848-1.882 3.626-2.941zm-36.645 2.516c-.429 1.376-.946 3.477-1.003 5.728-.081 3.277.96 13.271-5.747 12.872-6.707-.399-8.889-4.827-6.781-12.192.987-3.448 1.912-7.142 2.617-10.096v3.413s5.782 1.37 10.914.275z" id="Combined-Shape" fill="#321F0F"/><path d="M99.6 192.005s2.497 11.012 2.695 12.271c.197 1.258-1.36 10.697-1.348 13.529.013 2.831.895 19.821 1.348 22.968.453 3.146 3.773 15.102 3.773 16.99v4.09s6.641 1.573 12.005 0c1.533-5.824-.255-11.642 0-13.529.256-1.888-.277-8.81.628-14.788s-.905-6.607 0-11.641.261-9.439.261-9.439l.222-13.07 1.376-10.491 3.434-3.828 2.937-.501 2.124 4.252s6.468 20.005 6.004 22.065c-.639 2.831.638 8.18 0 10.068-.639 1.888-.128 10.697 0 16.046s1.916 7.551 2.171 12.271c.255 4.719 1.022 9.124 1.022 10.068 0 .944 1.909 3.216 1.909 3.216s3.965 2.901 9.84 0c5.875-2.902 5.195-8.25 5.195-8.25s-1.747-11.642-2.704-13.529c-.958-1.888-1.469-19.792-1.469-21.223 0-1.431-1.022-8.353-1.022-10.555s.256-9.609.256-9.609l-.511-8.01-1.844-4.725c1.376-.384-13.261-137.217-13.261-137.217s-10.728-4.364-25.42-6.916c0 0-11.673 141.394-7.439 142.538l-2.182 6.949z" id="Combined-Shape" fill="#183561"/><path d="M76.373 289.662c1.004.499 7.523 3.745 9.084 4.602 1.693.93 7.572 3.939 5.8 5.867-2.56 2.786-9.884 2.068-14.253-.135-3.438-1.734-11.942-5.356-11.942-5.356l2.223-6.671.32.095c2.045.581 5.356 1.378 8.768 1.598zm-9.703-1.875l-2.334 2.933s-3.16 2.165-5.87 1.34-2.839-2.532-2.839-2.532v-6.693c5.211 2.358 8.636-.733 8.636-.733l.419-2.337 3.149-1.765c-1.272 5.344-2.294 9.42-2.294 9.42s.388.138 1.064.347l.068.02z" id="Combined-Shape" fill="#B59374"/><path d="M47.002 169.968c-.422 3.393-.642 7.902-.022 11.455.046 3.859.902 7.579 3.278 10.269l1.19 1.351c1.785 10.305 4.243 25.856 2.869 34.817-2.068 13.482.84 28.409-.442 54.086 6.182 4.03 10.388.234 10.388.234l2.606-14.533c-1.782-4.915 7.363-37.949 7.911-42.324.144-1.153.234-4.827.289-9.611l5.996 6.939s-7.332 25.173-8.613 33.774c-1.281 8.601-6.915 31.073-6.915 31.073s.388.138 1.064.347l-2.266 1.954s-3.16 2.165-5.87 1.34-2.839-2.532-2.839-2.532v-1.26c-2.342 4.96-1.434 9.045.211 10.832 4.741 2.37 8.21.182 8.21.182l.29-.206c-.05 2.744 1.346 4.79 2.437 5.878 1.601 1.599 7.649 2.501 7.649 2.501l.331-.603s1.507-.612 9.37 1.875c7.863 2.487 18.386-.498 18.131-4.171-.256-3.673-8.144-4.734-10.397-5.775-.295-.136-2.757-1.495-4.54-2.483 2.286 1.329 5.268 3.386 3.938 4.833-2.56 2.786-9.884 1.068-14.253-1.135-3.438-1.734-11.466-5.206-11.466-5.206l2.067-5.727c2.394.681 6.524 1.657 10.519 1.657.227-1.015.454-2.009.68-2.984.26-.28.451-.519.557-.708 1.135-2.012 1.705-4.398 1.103-6.146 6.023-23.793 11.565-34.471 15.122-42.797 2.329-5.453 4.014-12.856 4.014-15 0-1.706-6.819-18.454-13.079-32.998-.952-2.561-2.086-5.643-3.434-9.348.151-1.911-.221-7.916-.686-12.927-4.539 1.514-14.404 4.225-26.844 4.225-3.11 0-5.475-.318-7.265-.769-.069.02-.123-.013-.175-.045-.401-.105-.773-.217-1.116-.333z" id="Combined-Shape" fill="#183561"/><path d="M108.971 20.507c-2.49 1.149-2.334 7.313-1.341 9.962 1.724 4.597 3.708 3.594 3.708 3.594l-.451 7.9-3.257 4.237s14.858 17.17 15.71 17.17c.852 0 11.301-13.937 11.301-13.937s5.068-8.322 5.068-10.812c0-2.491-.616-5.139-.087-6.429 1.022-2.491 2.783-7.088 2.975-7.855.191-.766 6.412-21.647-17.534-23.371-7.07-.509-15.325 2.682-16.092 19.54z" id="Combined-Shape" fill="#D6B3A5"/><path d="M93.837 127.785l-.192 36.015.575 19.157s20.689 5.938 24.521 5.938h5.172s.719-35.119 1.115-37.164l.043-.867 2.099 38.031s21.072-.663 23.563-3.588c-1.533-25.147-5.364-63.844-5.364-63.844l6.705 10.858 1.723-.866c0-1.754-1.724-7.667-1.724-7.667l6.322-1.175 5.747 5.172c-.478-3.831-3.639-5.555-4.214-8.62-.575-3.066-2.49-6.322-2.682-9.579-.192-3.257-1.533-3.448-1.916-4.789-.383-1.341-.957-10.345-2.107-12.452-1.149-2.107-.766-24.329-1.149-28.735-.383-4.406-1.916-6.897-4.215-8.429-2.299-1.533-13.218-5.747-13.218-5.747s-.624 9.356-.923 10.871c-3.483 17.672-7.698 28.592-7.698 29.166 0 0-18.517-36.589-16.799-46.953 0 0-3.342 1.077-4.651 1.743-1.31.667-7.093 3.066-7.093 3.066l-4.81 15.867c-1.168-.878-2.086-1.499-2.086-1.499l-14.751 15.133 13.293 37.464s3.947 12.532 4.715 13.493z" id="Combined-Shape" fill="#E5E8EB"/><path d="M190.706 134.298c3.576 0 37.329 7.86 37.329 7.86l-18.938 10.531-5.109 5.172-3.695-.85-6.13-1.352-2.299 6.418-7.407 3.299s-21.19 9.303-25.846 6.39c-6.313-3.951-34.032-22.07-38.465-24.608-6.575-3.766-10.74-8.389-15.535-9.155-4.795-.767-8.962-4.175-8.962-4.175l14.417.691c5.118 1.998 10.529 4.072 14.74 5.659 9.83 1.41 29.631-2.048 29.631-2.048l6.439-1.148c.01-.001 5.949-1.342 5.949-1.342l8.429-.767-.432-.575h15.885zm-57.745 6.246l-.136-.084.136.084zm-87.43 8.968c-.02-.537-.063-1.023-.15-1.426-.311-1.441-.561-15.081.039-27.917-1.207-8.581-2.076-19.177 1.882-27.474 3.355-7.805 11.165-16.137 11.165-16.137s-.993 1.181 4.584 7.772c1.091.582 1.919 1.422 2.538 2.434 2.914 1.856 6.9 2.065 6.9 2.065s1.096 6.259 5.064 13.438c3.445 6.232 6.376 12.274 3.934 21.104-4.118 14.888 3.634 43.526 3.634 43.526s-12.303 5.219-29.562 5.219c-10.645 0-12.558-3.73-12.558-3.73s1.391-9.388 2.53-18.874z" id="Combined-Shape" fill="#2D669B"/><path d="M139.62 130.664l1.726.789c.766.355 6.13.547 8.237 2.845 2.108 2.299 6.322 5.364 6.897 5.939.574.575 5.172 5.747 5.555 6.322.383.574 3.832 6.282 4.023 6.685.192.403-.191 3.468-2.682 1.935-2.49-1.532-7.279-9.003-8.046-9.578l-.766-.575s.383 4.023-.191 4.406c-.384 1.916-.575 2.107-1.533 2.107s-1.533-1.149-1.533-1.149-3.448 1.916-4.023.958c-1.724 1.896-2.873 1.341-3.639.383-.767-.958-3.065-2.753-4.215-3.1-1.149-.348-3.256-2.455-3.448-4.371-.19-1.899-1.321-2.668-1.341-2.682l-1.681-1.034-.136-.084c0-.011.31-8.129 5.468-10.401l1.327.606v-.001zm18.775-8.051l5.747 5.172s4.406-.383 6.13 1.15c1.724 1.532 4.981 5.938 4.981 5.938l-8.429.767s2.874 1.915 2.874 3.639c0 1.725-1.448 3.64-3.598 2.299-2.15-1.341-5.215-4.597-5.215-4.597l-2.49.191s-4.598-3.965-4.598-5.718c0-1.753-1.724-7.666-1.724-7.666l6.322-1.175z" id="Combined-Shape" fill="#D6B3A5"/><path d="M108.971 20.507c.668.218 1.271.52 1.95 3.688.679 3.169 1.811 4.678 1.811 4.678s.453-3.462 1.66-4.183c1.207-.721 3.093-2.599 3.848-3.06.754-.461 3.546-1.14 7.394.897 3.847 2.037 11.695 3.404 14.109 3.932 1.499-.251 1.467-1.352 2.853-2.121.632-.35 1.108-2.322 1.108-2.322s.489-1.773.489-2.876c0-1.102-.075-5.13-1.282-7.771-1.207-2.64-1.336-3.083-2.716-4.677-1.434-1.656-3.018-3.32-4.678-4.074-1.66-.755-3.093-1.213-4.753-1.701-1.66-.487-7.656-1.544-10.618-.412-2.962 1.132-4.924 1.509-6.735 3.622-1.811 2.112-3.772 6.79-3.998 8.374-.227 1.584-.442 8.006-.442 8.006" fill="#321F0F"/><path d="M97.477 68.016s-4.095 13.95-1.828 17.484c-11.514-.957-15.019-5.612-18.157-6.195-4.487-.833 17.318-12.089 19.985-11.289" fill="#321F0F"/><path d="M72.389 89.125c.367-1.98.977-4.682 1.76-6.053 1.324-2.318 3.068-2.908 6.621-1.324 3.625 1.615 5.705 1.671 6.457 1.324 1.326-.613 2.317-3.145 2.317-3.145s1.49.579 1.904-1.159c1.324-.497 1.573-.662 1.655-1.242.083-.579.745-1.821.745-1.821s1.066.6 1.728.6c.662 0 1.721-.423 1.702-2.69-.026-3.067.241-4.759.723-5.918.482-1.159 5.136-5.346 4.086-12.872-.79-5.659-32.242-2.379-32.242-2.379l-6.291 13.575c-1.502 3.873-3.312 7.586-5.117 10.896-.114.297-.307 1.901 4.613 7.715 1.091.582 1.919 1.422 2.538 2.434 2.643 1.684 6.169 2.012 6.801 2.059z" id="Combined-Shape" fill="#B59374"/><path d="M58.526 70.611c.356 8.666 8.256 14.889 19.679 14.889-6.536-11.052-3.987-24.6-1.64-26.672 2.669-2.356 2.772 1.693 2.772 1.693s5.772-2.094 10.361-1.587c8.324.92 11.751-4.36 11.751-4.36 1.59 1.838.104 5.681.104 5.681s1.732-1.738 1.98-4.718 1.735-14.126-16.637-19.534c-6.285-1.85-29.772.428-28.37 34.608" fill="#321F0F"/><path d="M81.373 123.432c3.053-.001 6.934-.133 7.656-.775 1.223-1.087 3.669-1.903 6.387-2.175 2.718-.271 5.028-1.766 5.843-1.223.816.544 1.224 2.718-3.125 3.398h-1.359s2.174.856 4.077 1.923c.136-1.787 1.495-2.059 1.495-2.059s.195-1.631 1.456-1.631c1.669 4.892.99 5.3.99 5.3s5.843 0 5.979 1.903c-3.669.679-6.969 0-6.969 0s-1.32 1.766-2.408 1.766c-1.359 1.359-4.213 1.903-4.756 1.903-.544 0-6.931-1.767-8.018-1.767-.795 0-5.77 1.044-8.385 1.605.123-2.962.474-5.745 1.137-8.168zm-22.137 34.858c2.292-1.8 6.458-6.38 4.34-14.849 0 0 19.497-2.446 22.183-3.126 2.686-.679 10.161-3.261 12.335-3.941 2.175-.679 6.251-1.766 6.931-.815.679.951 3.397 3.839 4.077 3.754.679-.085 5.436 0 5.436 0s.408 2.633-.68 2.769c-1.087.136-2.989.815-2.989.815s-.952 2.311-1.903 2.447c-.951.136-.815 1.494-2.174 1.902-1.359.408-2.387 2.31-2.892 2.31-.506 0-7.022-1.902-8.452-2.446-1.42-.539-35.707 11.01-36.212 11.18z" id="Combined-Shape" fill="#B59374"/><path d="M132.215 51.541c-.511.383-1.15 2.043-1.788 3.065-.639 1.022-2.749 1.016-2.749 1.016l-4.786 6.072-2.554-4.151s-3.321-2.171-7.025-5.364c-3.703-3.192-2.453-10.161-2.453-10.161l-2.235.697 1.117 6.72 1.954 6.607 11.738 7.915 5.843-6.924s.639.189 1.533-.991c.894-1.18 1.413-2.427 2.069-3.361.65-.924 1.738-3.196 1.762-3.246 0-.001-1.915 1.723-2.426 2.106z" fill="#2D669B"/></g></svg>
