<svg width="195" height="245" viewBox="0 0 195 245" xmlns="http://www.w3.org/2000/svg"><g fill="none"><path d="M44.96 60.143s-4.941 7.168-7.417 5.204c-2.477-1.963-16.725-18.246-17.818-20.599-1.092-2.352-5.321-6.413-5.825-7.001-.505-.589-5.168-5.463-5.546-6.051-.379-.588-3.572-5.21-4.412-6.596-.841-1.387-1.387-2.395-1.051-2.941-2.52-3.32-3.361-4.706-2.647-5 .715-.294 1.345.168 1.807.756.462.588 3.403 4.118 4.034 5 .63.882 1.386 1.302 1.218.84-.168-.462-2.689-4.117-2.731-4.453-.042-.337-1.596-2.101-2.563-3.782-.966-1.68-.588-2.269 0-2.101 2.437.715 3.908 3.446 4.37 4.37.462.924 3.571 4.916 3.655 4.664.084-.252-.252-1.219-.588-1.975-.336-.756-1.555-3.571-1.765-4.117-.21-.547-3.151-4.496-1.512-4.118 1.638.378 3.193 2.269 4.033 3.739.841 1.471 2.983 5.799 3.361 6.597.379.798 3.404 3.907 3.866 3.907.462 0 .42-.378.504-.84.084-.462-.42-2.395-.252-5.126.168-2.731 2.647-2.521 2.647-2.521s.294 3.529.294 4.244c0 .714.294 3.151.674 4.621.38 1.471.377 3.95.377 4.874 0 .925-.377 3.439-.377 3.439s1.38 1.971 2.759 3.548c1.38 1.577 20.905 21.418 20.905 21.418zm75.266-8.717s11.749-25.993 12.592-27.401c.843-1.407 1.693-4.187 1.693-4.187s-.641-1.885-.77-2.598c-.129-.712-.478-2.622-.391-3.808.087-1.186-.026-3.105-.126-3.655-.1-.55-.366-3.311-.366-3.311s1.881-.508 2.391 1.573c.511 2.081.393 3.64.522 3.985.129.344.15.641.506.577.356-.065 2.253-2.883 2.433-3.551.18-.668 1.226-4.302 1.668-5.552.442-1.251 1.376-2.925 2.586-3.445s-.505 2.934-.59 3.384c-.086.45-.632 2.79-.785 3.419-.153.63-.277 1.421-.177 1.604.1.182 1.938-3.327 2.165-4.104.227-.777.978-3.087 2.756-3.977.43-.212.804.188.294 1.618-.51 1.43-1.461 3.007-1.447 3.272.015.265-1.417 3.434-1.482 3.813-.065.38.459-.05.821-.818.363-.767 2.136-3.898 2.41-4.416.274-.517.695-.961 1.287-.835.591.127.137 1.313-1.342 4.223.336.374.055 1.227-.398 2.413-.454 1.185-2.269 5.193-2.478 5.699-.21.506-3.122 4.913-3.429 5.436-.306.524-2.095 6.013-3.117 8.752-.71 1.904-6.198 20.707-7.832 22.566-1.634 1.859-9.394-.676-9.394-.676zm-42.344-1.242s12.129 5.655 12.372 6.081c.243.425-3.344 20.55-6.575 18.084-3.231-2.465-5.342-8.296-5.221-10.059.122-1.763 0-2.614 0-2.614s-.631-.061-.912-.669c.304.243.912 0 .912 0s-.425-1.034-.972-1.946c-.548-.912.214-7.783.396-8.877z" id="Combined-Shape" fill="#B59374"/><path d="M105.657 245c.793-8.447 2.232-24.918 1.662-27.536-.771-3.547-.257-14.19 0-17.737.257-3.548 4.886-27.198 5.471-38.431.585-11.234-5.112-24.833-5.112-24.833s-33.785-1.478-37.899 9.46c-4.114 10.938-1.028 26.607 0 32.224 1.029 5.617 5.914 34.884 6.428 38.727.281 2.094.255 15.949.174 28.127h9.659c.767-8.539 1.995-23.444 1.995-25.172v-17.442c0-2.956 3.086-29.142 3.086-29.142s4.628 35.351 4.371 40.376c-.193 3.768 1.782 22.327 2.783 31.38h7.383zm65.132 0c1.386-8.924 8.951-81.88 8.951-81.88l-43.28 29.389 2.816 52.491h31.513z" id="Combined-Shape" fill="#183561"/><path d="M88.658 75.966c-.319 1.606-1.804 6.442-4.38 5.926-2.577-.515-17.997-4.395-19.286-5.168-1.288-.773-6.183-5.669-7.73-6.7-1.545-1.03-5.153-4.122-5.926-4.38-.773-.258-2.319-2.915-3.349-3.519-1.031-.604-2.062-1.981-2.062-1.981s-5.926-2.745-8.76 4.727c3.349 4.123 2.319 5.383 3.349 5.783 1.031.401 1.546 2.834 2.319 2.777.773-.057.258.458 1.546 1.489 1.289 1.031 1.804 4.221 3.865 5.46 2.062 1.239 14.43 12.061 15.46 13.865 1.031 1.803 3.607 4.895 4.38 5.926.773 1.031 1.673 9.94 2.949 15.284.356 1.49 1.883 3.83 1.11 14.91-.773 11.079-4.849 20.583-4.849 20.583s28.676 15.077 44.54-.592c-2.285-17.737-2.285-36.506-2.285-38.708 0-3.172 1.534-12.729 2.564-13.323 1.031-.594 11.884-21.745 12.142-24.894.257-3.149.683-6.241 1.887-8.045 1.205-1.803 2.235-3.774 2.493-6.396s-.773-.83 0-3.787 1.546-4.383 1.546-4.383-1.031-3.596-9.276-1.343c0 0-3.426 4.013-3.516 6.483-.091 2.47-1.379 6.254-1.637 6.165-.258-.088-.773 1.458-1.288 2.488-.516 1.031-2.319 5.154-2.319 5.154s-4.638 6.441-5.411 6.957c-.773.515-3.878 2.319-3.878 2.319l-.418 1.112s-1.198-4.244-.639-7.281c.559-3.037-13.141 3.092-13.141 3.092" fill="#2D669B"/><path d="M127.813 43.496c-.719-2.887-.547-8.27.893-9.353 12.36-1.376 28.807 23.816 28.807 23.816l-12.089 6.675s-7.758.361-10.284 0c-2.526-.36-2.166-2.345-2.526-3.969-.361-1.624-3.887-7.996-4.786-10.161-.899-2.165.703-4.121-.015-7.008zm-34.259 47.717l2.526 3.067-7.217 6.135s-2.165-2.346-2.887-2.346-5.052-3.608-5.954-4.33l-7.218-6.135c-2.165-1.804-1.624-3.247-.902-3.475.722-.228 3.248 1.851 3.789 2.393.542.541 4.331 2.706 4.331 2.706l-2.526-3.608s-2.346-2.526-3.429-3.429c-1.082-.902-.404-2.295 1.581-2.475.36-1.083 1.897-1.208 2.759-.82.902-1.804 2.517-1.396 4.141-.674 1.624.722 2.731 2.21 2.731 2.21-1.309-1.22 1.449-1.675 2.76-1.066 1.048.487 2.628.66 3.53 1.923.902 1.263 1.805 2.526 1.985 3.789.18 1.263 0 4.15 0 6.135z" id="Combined-Shape" fill="#D6B3A5"/><path d="M94.887 38.728c11.96.126 18.943 14.76 11.759 36.315-4.597 10.241-17.206 8.421-25.542 2.665 7.25-12.436-4.664-22.194-3.009-28.974 1.335-5.238 3.587-10.145 16.792-10.006zm33.819-4.585l-.662.98s-.841-.303-3.395-3.727c2.612-.349 5.05-6.966 14.045-8.889 8.996-1.923 13.585 1.343 17.182 5.366 3.596 4.023 1.823 13.282 1.519 16.4-.304 3.119-.118 9.727-.118 9.727l-3.083 4.793s-5.036-2.984-7.255-4.295c-2.903-1.715-7.847-5.363-7.14-6.327 1.063-1.451.638-6.269-.697-6.385-1.335-.116-2.496 2.554-2.67 1.71-.174-.844-1.915-6.064-3.076-6.586-1.161-.522-3.135-1.277-4.65-2.767z" fill="#321F0F"/><path d="M94.713 92.62s1.368.75 3.75 1.822c.493.222 3.536 2.545 3.716 3.087.181.541 2.418 1.604 4.042 2.326 1.624.722 8.484 4.078 8.484 4.078l6.31-8.178s7.269-15.964 9.253-18.851c1.985-2.887 7.759-6.135 7.759-6.135v-3.247s3.428-5.774 7.037-8.3c3.608-2.526 13.893-5.774 13.893-5.774s.858 2.858 1.556 3.866c3.593 1.775 5.136 2.211 8.609 3.547 3.593 1.382 8.153 3.04 9.535 4.698 1.382 1.659 12.576 28.469 16.169 37.866 1.03 2.247-6.82 19.969-12.313 31.512-.098 10.369 2.529 27.071 3.329 30.496 1.427 6.106 1.183 24.833 2.661 29.859-1.929 2.417-13.127 5.929-14.39 7.553-1.263 1.624-1.624 1.443-2.526 3.789-.902 2.346-.902 3.789-4.511 5.233-3.608 1.443-32.729-5.637-32.729-5.637s.902-12.99 0-22.192 1.515-66.176 1.515-66.176-6.208 3.003-7.471 3.905c-1.263.902-10.983 2.446-13.148 2.446-2.165 0-4.691-3.428-7.939-5.593s-6.857-3.789-8.841-5.774c-1.985-1.984-6.458-3.456-11.656-9.118.36-6.676 7.906-11.108 7.906-11.108" fill="#E5E8EB"/></g></svg>
