<svg width="760" height="453" viewBox="0 0 760 453" xmlns="http://www.w3.org/2000/svg"><path d="M182.543 236.476l.78.025.766 1.473.455-.535.535-.619 2.883-.767 2.504.534.293-1.533-4.552-2.981-.251-.085-2.692-1.009-3.038-.284-.001.001-.008-.001-1.437 1.465.012.005-.004.004 1.266.518.378.156.216 1.846.023.212-3.638.319.37 1.981.007.001.002.008 1.058.078.611-.922h.013l3.438.189.012-.077zm256.114 76.891l14.507-1.779-3.382-6.547-.181-6.272 1.093-2.998-14.302-8.994-4.483.741-1.558 1.154-.138 2.628-1.007 3.644-1.05 1.249-1.506.138 2.883 10.002 4.707 2.214 3.244.095.107.791-2.645-.093 1.334 6.177-1.084 4.79 2.676 2.8-.052 3.584.516 1.508 3.554-3.842-.413-4.885-1.902-1.456-.919-4.648zm198.354-40.442l-1.988 7.478-10.783 3.644-3.227-3.791-1.566.431 2.926 11.303 4.38.491 5.843 2.214v2.214l2.676-.491 3.898-5.401v-4.419l2.194-4.419 2.435.491-2.926-6.142-.447-3.954-3.416.353zm61.167 20.581l-.318 21.055 3.029-.164 3.984-4.661 3.348.164 2.151 1.93.714 5.944 6.85 3.618 1.756-.646v-2.171l-5.499-4.583-2.711-6.272 2.151-1.042-1.592-3.455-3.184-.078-.8-3.696-8.442-5.703-1.437-.241zm-615.521-105.841l4.156 13.103-1.936 1.085.215 2.602 3.657 2.817v5.212l4.518 4.342-1.936-12.802-2.582-8.468.645-5.858 2.151.215.861 1.956-.861 4.988 11.187 21.916v7.814l9.036 10.631 9.896 4.557 4.088-2.386 5.809 4.773 3.442-3.472-1.506-3.911 4.948-1.516 1.506.87 1.506-1.516h2.366l4.303-7.598-2.151-1.956-8.39 1.956-1.936 5.643-4.948.87-5.809-2.386-2.582-8.244 1.953-10.398-3.993-2.49-1.902-9.985-1.592-.681-2.909 2.955-3.339-1.783-1.308-6.659-13.227-1.387-6.833-5.143-6.506.336zm327.248-70.443l-4.819-.172-3.055 1.869-.043 1.387 1.979 1.869 6.153 1.042-.215-5.996zm-37.769 72.218l-3.511-1.18-14.612 2.748-3.184 2.421 1.945 10.053-5.809.233-3.494 5.625-8.321 1.999.026 4.092 27.408 20.977 4.673.396 15.584-12.19-1.558-1.964-2.926-.396-1.756-2.946v-12.19l-1.17-1.18.198-3.144-3.115-3.144-.387-3.343 1.36-.982-.585-3.541-.766-2.343zm-22.021 4.126h-9.939l-1.945 4.325-4.483 2.162-3.7 10.028-7.211 4.325-10.129 16.704 9.939-.198.387-4.91h2.53v-6.685h8.769l.198-8.649 8.382-1.964 3.511-5.703 5.456-.198-1.764-9.235zm-37.339 38.232l1.876 2.455-.387 10.613 2.728-1.964 1.945-.396 2.728.982 3.115 4.325 2.926-1.964 14.225-.198-3.511-23.785 3.769-.017-7.022-5.384.009 3.498-8.889.009-.043 6.676-2.556-.009-.327 4.928-10.585.233zm4.492 11.768l-3.391 2.464-.774 1.378-.241 1.378 1.248.896 4.165-.06 2.676-.724.301 1.318-.241 1.74 2.556 1.258.534.603 3.391.121.12-1.499-3.098-3.722-3.451-4.678-2.143-.896-1.652.422zm-2.78 6.909l-.112.956 5.955-.086.301-.887-.129-.896-1.712.698-4.303.215zm-.086 1.62l1.067 2.593.594-1.602 7.237.758-3.132-1.611-5.766-.138zm1.558 3.713l1.205 2.386 3.382-2.912.034-.896-3.984-.577-.637 1.999zm1.566 2.938l2.616 4.032 3.408-2.963 3.494-.155 2.909 3.868 2.47 1.628.929-1.809.826-.465-.06-3.98-1.644-4.721-5.043.56-6.239-.5-.034 1.602-3.631 2.903zm3.021 4.471l4.862 4.704 3.468-4.213-2.169-3.403-2.986.302-3.175 2.61zm5.37 5.221l9.449 6.323-.224-4.79-2.857-3.368-2.788-2.472-3.58 4.307zm10.24 6.513l3.683-2.61 4.578-.801 4.673 1.008-2.384-3.61-.697-2.205.697-6.521-4.174.198-1.893-1.809-3.976.103-1.893.302.198 4.411-.998.405-1.196 2.205 3.081 3.61.301 5.315zm-10.851-26.628l2.65-1.818 14.733-.086-3.408-23.725 3.89-.112 18.82 14.378 2.53.362-.955 7.995-11.832 1.077-9.13 6.823-1.661 4.669-6.342.267-1.618-4.661-4.862.345.189-1.525-3.003-3.989zm26.789-1.344l3.132-.25 5.137 7.271-4.767 3.601-3.451-.887-4.638.06-.749 2.722-3.89.19-1.067-1.456 1.377-4.428 8.915-6.823zm8.864 6.651l2.194-.052 1.979-2.972 3.322-.594 3.537 2.162 7.547.215 5.834-2.378 2.194-1.887.164-2.481 4.07-4.109 1.076-9.071-2.676-5.617-6.85-1.671-15.851 12.371-2.246-.215-.964 8.589-8.089.81 4.759 6.9zm-14.242 12.965l.964 2.266 2.513 3.946 1.394-.052 3.804-2.162-.267-12.311-2.943-.861-4.122.112-1.342 9.063zm9.363 3.618l2.306-1.353-.052-8.916-1.497-2.429-.964.81.207 11.888zm3.003-1.516h1.824l.103-5.186 2.306-3.351-.103-5.832-2.091-.052-3.588 2.808 1.497 2.86.052 8.753zm2.461-.103l3.373.164 4.07 4.54 1.979.543 1.549-.758 2.358-.327.8-3.291 3.21-2.111 3.477-.164 6.368-11.725-.103-2.645-2.943-2.266-5.886 2.593-7.874-.112-3.752-2.378-2.676.594-1.394 2.429-.103 6.857-2.246 3.187-.207 4.867zm11.48-79.291l4.759-1.921 1.566 1.017.06 1.241-.731.956.112 1.697.731.396v3.05l-.843 1.413.112.905 3.193 1.129-2.573 4.006-1.007-.06-.172 3.222-1.119.172-.955-.844.224-3.274-3.132-3.05-.396-2.653 1.515-1.189-1.342-6.211zm4.423 17.833l1.342-.224.396-3.101h.671l2.745-4.514 6.772 1.973 1.85 2.877 6.661 3.05 3.468-1.465-.336-1.465-1.515-1.465.172-1.017 2.461-2.085h4.871l1.85 2.481 3.915.569.508 31.78-2.909-.112-17.572-9.149-1.902 1.077-7.22-1.809-1.962-2.593-2.857-.396-1.454-2.593.043-11.82zm36.04-4.282l2.298.06 4.475 1.241 2.126.06 2.633-2.205h1.231l2.237 1.241h2.831l.508-.034 1.79 5.152.508 1.663.473 2.49-.843.62-1.454-.732-1.678-5.479-1.515-.112-.112 1.861 1.007 3.222 8.063 9.993.172 4.29-2.349 2.714-22.064-.25-.336-25.793zm-25.076 45.607l.112-2.541 4.079-3.971 1.093-9.752-2.719-5.203 1.902-.973 18.416 9.606-.112 9.425-3.244 2.765v4.859l2.126 4.118h-3.752l-6.213 6.151-.164 1.861-4.587-.06-.06.844-2.616-.345-1.79-3.386-1.342-.663.172-1.034 1.687-1.292v-6.048l-2.332-.362-2.814-2.093 2.16-1.904zm48.443 12.354l-2.533-4.259-.266-3.097-.608.116-.164.954-3.32 4.854-2.649-1.266-2.642 2.216-5.466-.314-2.418-1.935-3.471 1.778-.131 1.185-1.058.638 10.602 10.923 5.775.328.842 1.284 8.263.146.067-1.852.706-1.284 2.755-.353-3.434-4.988h-2.529l-.645-3.542 2.03-.895.296-.637zm2.509-34.227l-3.175 3.206-22.203-.198.24 5.66-2.116-.06-.155 10.191-3.21 2.766-.129 4.255 2.316 4.575 2.538 1.499-.039.357 3.459-1.774 2.638 2.111 4.853.279 2.804-2.351 2.484 1.185 2.797-4.09.236-1.358 2.131-.406.331 3.852 2.132 3.584 5.167-11.123v-6.763l3.753-4.428-6.851-10.968zm-63.835 46.236l2.771 2.55-.198 3.946 15.197-.353 1.239-1.396-4.354-4.695-.645-1.697 2.771-5.195-1.885-3.446-1.583-.853v-1.749l1.833-1.197.103-5.445-1.454-.164-.026 2.86-6.385 11.931-3.907.198-2.676 1.844-.8 2.86zm67.888-25.483l-.215-5.074 3.408-3.98.921.706 1.678 5.617 8.055 6.005-1.463 1.8-5.895-5.074h-6.489zm12.71 5.893l-.491 2.895 3.408-.052.052-4.256-1.248-.767-1.721 2.18zm-18.923 8.804l6.265-13.956 6.222.034 5.516 4.798-.387 3.954h4.277l.439 2.378 6.919 4.144 4.268.215-8.115 8.727-11.144 3.437h-2.762l-4.922-4.204-1.945-.818-3.769-5.557-2.487.034-.293-2.55 1.919-.637zm22.589-5.789l3.511 2.395 1.041-.052 8.717-2.998.99 3.196-.697 2.696-1.885 1.499-4.707-.302-6.738-4.144-.232-2.292zm20.55-4.643l1.833 2.05 2.478-1.499.895-.302-1.136-1.103-2.177.646-1.893.207zm-6.583 3.791l3.761-1.447 1.334.801-.146 3.343-3.468 9.89-18.768 20.124-2.177-1.499-.146-8.494 2.823-3.248 5.989-1.852 8.786-9.287 2.298-2.05.645-2.998-.929-3.282zm-82.879 17.23l4.01 4.342 1.583-2.05 2.521.103.542-1.999 2.478-1.551 5.146 3.549 2.969-2.946 11.523.508-10.688-11.044 1.437-.896.198-1.947-2.427-1.146h-3.563l-5.74 5.694-.198 2.343-4.552-.146-.146.999-2.969-.302-2.676 5.091.551 1.396zm-7.977 7.391l-.103 2.145-4.853-.103-2.969 5.746 6.979 7.641 1.73-1.447-.052-1.499-1.188-.551v-1.051l2.676-1.697 2.375 1.8 2.625.052-.052-9.037-4.156-.198-.052-1.895-2.96.095zm-4.647.052l-.052 1.197 3.907.198-.052-1.353-3.804-.043zm8.614-.146l-.052 1.249 4.113.103.146 10.691-3.761-.103-2.177-1.697-1.687.948-.077.474.869.422.25 2.197-2.323 1.999.499 1.051 2.573-1.999h1.239l.396 1.197 1.635.698 5.249-4.445-.103-3.248 1.093-2.645 3.365-2.498.904-8.451-2.392.009-2.771 3.799-6.988.25zm-3.829 17.841l1.497 1.947 1.936-1.835-.568-1.904-.482-.034-2.384 1.826zm2.435 2.136l8.872-.155 1.799 2.559-.069 1.887.663.603h4.406l1.265-2.49h1.799l.731.741 2.47-.069.731 8.684 4.268.138v.672l11.471 5.177.534 1.008h2.401l-.267-3.635-4.337-2.085.267-2.757 1.867-4.376 4.268-.138-3.666-12.181.069-5.177 5.8-9.08.069-1.275-.869-.474.034-2.464-1.058-.095-1.067-1.361-17.512-.793-3.21 3.127-5.258-3.463-1.85 1.137-1.342 11.311-3.322 2.567-.998 2.274.181 3.368-5.989 4.902-1.592-.724.215.939-1.773 1.697zm41.685-13.62l2.418 2.231-.103 2.386-3.752.078v-2.636l1.437-2.059zm-1.385 5.436l3.675-.078-.955 3.222-.929.81h-1.136l-.809-2.18.155-1.775zm1.799-6.134l2.607 2.447 1.635-1.042 4.423-.724.757.078.284-1.68 2.496-5.255-2.1-4.376-6.807.043-.043 1.8.912.879-.138 1.8-4.027 6.03zm10.783-10.829l2.289 4.471-2.745 5.763-.361 1.749 13.708 8.486 4.251-6.685-2.151-1.749-.043-8.804 2.694-2.946-4.294 1.43-3.244.043-5.077-4.29-1.601-.689-2.969.276-.525.879.069 2.068zm-31.221 50.121l2.728 3.791 4.225.258 1.497.827 4.423.052 3.812-5.35 10.654-4.773.929-4.204-1.239-6.022-5.559-3.17-3.709.258-1.85 4.101.052 1.869 4.372 2.128.258 4.626-3.761.207-.929-1.559-10.447-4.462-.31 3.429-4.94.155-.207 7.839zm-22.314-24.113l2.934 10.967-.069 3.463-4.294 4.618-.645 7.503 16.522.146 5.37 1.947 4.432-.577-2.582-3.239.009-9.252 5.077-.215v-3.61l-4.122-.172-.826-8.546-1.738.026-.938-.844-1.024.052-1.36 2.636h-5.232l-1.213-1.223.361-1.732-1.429-2.093-9.234.146zm45.222 48.734l2.315 1.921 5.456-3.325.878-4.936v-8.15l8.752-7.168 1.497.052 5.301-5.091-.826-10.493-14.053 1.775.413 3.17 2.418 1.869.568 5.712-4.733 4.626-1.136-2.593.207-3.429-2.728-2.963-6.695 3.119 6.23 3.17.207 9.244-4.122 6.125.052 7.366zm-14.208-18.074l7.719 8.727 5.921 1.508 3.967-6.229-.31-8.253-6.437-3.325-2.418 1.094-3.606 5.505-4.991-.052.155 1.025zm-24.19 25.551l2.883.207 1.695 1.714 4.019.052.981-11.423v-7.478l2.573-.517.981-7.839 6.54-.207 2.315-1.921-3.915-.155-5.301.724-5.714-2.076h-16.058l.413 4.566 5.353 7.891-.929 4.049.052 2.128 4.113 10.286zm10.292-9.244l1.85.569-.258 5.298 1.902.258 4.372-3.946 5.249.569 1.394-3.532 6.643-6.073-7.977-9.192-.103-1.508-.878-.258-2.418 2.231-6.282.155-.878 7.839-2.47.569-.146 7.021zm27.847 2.386l-2.16.362-.929 2.541 1.652 1.508h2.005l1.695-2.438-2.263-1.973zm-5.774-8.934l-6.798 6.289-1.618 3.885-5.387-.672-4.483 3.989-2.977-.293.241-5.513-1.058-.37-.74 11.277-5.284-.052-1.592-1.878-2.332-.026 2.126 6.108 3.795 3.592-2.711 3.162 1.756 3.963 4.062 1.551 3.236-2.757 9.268.052.663-.827 4.113-.724 13.915-13.87-.052-4.368-1.489 1.93h-2.229l-2.711-2.274 1.377-3.429 2.366-.482-.215-7.047-5.241-1.215zm-183.322-304.585l-1.17 1.869 2.108 2.111-.938 2.111 3.046 3.98 3.743-1.172 4.914-.465 5.619 6.091 3.743 10.071-3.038 6.323 4.208-.706 2.341 1.404.232 3.05-5.146.233 2.805 2.808 3.511.706-7.719 10.303-.938 6.323 1.635 5.152-1.17 3.05 2.108 6.556 3.976 4.454 1.17-.233 2.573-.706.232 3.747 1.635 2.343 3.038-.233 2.341-8.666 7.022-8.666 10.533-4.213 6.549-8.201 3.038 1.404h6.316l5.146-5.152 6.316-2.576.706-3.98-3.976-3.515-3.511-1.172-1.876-4.919 4.449-2.576 7.022 3.747 2.341-2.576-3.743-2.111 7.96-10.777-1.403-4.686-3.743-.233 1.403-4.213 4.681-2.111 9.595-8.434-2.805-3.041-10.765.939-5.619 5.625 3.279-7.262-3.743-.939-2.108 3.747-3.038-2.576-8.425.939 2.341-3.747 13.803-.465-3.511-4.686-14.973-2.808-6.084.939.232 3.05-6.316-2.111.232-2.111-4.449.939-.938 2.343 4.681 1.637-4.914 3.515-3.511-3.98-4.914-1.404-.706 3.747h-4.914l-1.876-3.98-7.719-1.172-4.208 2.111-.232 2.808-5.378-.706-3.279 1.404.232 3.282v1.637l-6.084 1.172-2.805-1.869-1.876 3.041 2.805 3.05 5.852-.706.465 1.878-4.449 2.111-3.967-1.895zm18.725 36.544l1.403 2.111-.706 2.576h-1.403l-1.876-2.111.465-1.637 2.117-.939zm58.5-5.858l3.976 1.172-.232 3.282-4.208-2.111-.938-1.172 1.403-1.172zm301.449 294.876l-.301 21.864-3.356 2.464-.301 2.154 4.578 3.075 11.299-2.154h5.8l2.134-3.084 12.822-2.464 9.156 2.774-.611 3.696 1.222 3.696 7.022-1.232.301 1.844-4.578 3.386 1.523 1.232 3.356-1.232-.912 10.165 6.411 4.928 3.666-1.232 1.833 1.844 10.688-1.542 10.077-16.325 3.666-.922 7.323-13.551 1.833-11.699-4.578-5.849 1.833-1.232-3.666-11.397-3.967-2.774.611-15.395-3.666-2.774-.912-8.623h-1.833l-6.11 20.322-3.356.31-7.633-7.702 4.277-11.397-7.934-1.542-8.855 2.464-2.444 7.081-3.967.922-.301-4.928-16.178 9.855.301 3.696-2.444 3.386h-6.11l-13.132 5.539-4.587 12.354zm55.565 58.822l-1.523 6.16.301 4.307 4.578-.31 5.189-8.003-8.545-2.154zm75.108-12.319l.912 10.165-1.222 4.618-4.578 3.386.301 4.006v4.307l1.222 1.542 12.521-10.777v-2.464h-3.055l-4.277-14.473-1.824-.31zm-9.156 22.174l2.444 4.618-6.721 6.47-.611 3.386-4.578.612-7.633 7.081-7.022-3.386-.611-2.464 12.822-5.539 11.91-10.777zm-154.812-163.793l-.241 1.964 5.843 9.829h1.704l12.177 20.391 4.871.491 2.435-7.124-3.898-2.455-.731-3.928-22.159-19.168zm35.85 13.224l2.599 3.007 9.965-3.455 1.971-7.615 4.44-.319 4.062-2.946-5.267-3.842-1.205-2.111-2.599 4.798.955 2.757-1.583 2.3-2.986-.767-7.237 5.315.189 3.075-3.304-.198zm13.45-11.776l-2.478 3.007 2.031.637 1.145-1.602-.697-2.042zm8.399 25.724l1.945 2.386-1.265 3.584v.681h2.874l1.015-8.959.929.258 1.687 8.184 1.609.431 1.523-3.498-1.523-5.289-1.265-2.3 3.976-2.903-.929-1.284-3.804 2.472h-1.015l-1.859-2.731.594-1.197 3.132-1.533 4.733 1.447 1.437-.086 3.554-3.325-1.437-1.447-3.296 2.559h-2.117l-3.21-1.533-2.28.086-2.539 4.092-1.609 7.081-.861 2.826zm21.221-16.032l-1.609 3.92 2.539 3.325h.843l1.101-2.214.594-.767-1.101-1.197-1.609-.594-.757-2.472zm4.991 12.879l-3.468.767-1.015 1.111.843 1.447 2.28-.853 1.437-.853 2.117 1.706.929-.767-1.687-2.05-1.437-.508zm-57.502 11.087l-2.366 1.62.508 1.361 7.53 1.706 3.804.681 1.609 1.706 4.311.345 2.031 1.706 1.859-.431 1.695-1.533-3.132-1.447-2.702-2.3-7.022-1.706-8.124-1.706zm24.612 7.417l-1.859 1.025 1.101 1.197 2.702-1.025-1.945-1.197zm3.21-.767l.336 1.62 1.945.508.757-.939-.843-1.284-2.194.095zm4.656 4.264l-2.366.345 2.117 1.792h1.687l-1.437-2.136zm.671-2.817l-.508 1.025 3.804.594 2.96-1.706-1.687-.508-2.702.767-1.015-.853-.852.681zm12.435.603l-4.397 3.67.422.939 1.859-.345 2.194-2.05 4.311-.594-.843-1.447-3.545-.172zm63.973-16.73l-.757 1.077 4.139 3.67.568 2.154 1.127-.129.129-2.214-1.256-1.137-3.95-3.42zm2.074 5.195l-.818.19-.499 2.214-1.566 1.017-4.707.827.189 1.775 4.957-.25 3.141-1.964-.189-3.42-.508-.388zm-80.478-49.535l-.74 1.413-.413 1.74-4.113 5.229.25 1.077 1.73-.25 5.344-5.979-2.057-3.231zm6.661-1.99l-.086 4.316 1.566 1.577.577 3.067 1.566.336.74-1.912-1.231-.913-.327-5.393-2.805-1.077zm4.449 1.663l-.086 3.816.904 1.49 1.566-1.826-.413-3.317-1.971-.164zm.981-3.325l1.566 2.076.74 1.99h1.403l-.25-3.403-1.566-1.077-1.893.414zm3.046 7.805l.327 2.49-2.883 2.326-2.384.25-2.547 2.74.086 1.249 2.384-.749 1.644-1.077 1.403 3.567 2.47 1.74.99-.336.904-1.077-1.971-1.99 1.153-.913 1.317 1.077.904-1.49-.904-1.826-.164-4.066-2.728-1.912zm-13.407-25.31l-2.22 1.577-.25 4.979 3.459 6.72 1.153.913 1.48-.999 2.547.414.491 2.24 1.893.164.904-1.241-1.153-1.577-1.403-1.327-2.96-.327-1.566-2.576 1.807-2.74.164-2.404-1.231-3.067-3.115-.749zm1.153 14.852l.654 2.326 1.153.749.826-1.077-1.317-1.826-1.317-.172zm-28.303-17.264l-2.057.577-1.48 1.826 1.231 2.404 1.807.164 2.057-1.826.491-2.404-2.048-.741zm23.777-18.832l-3.046 2.326-.164 4.48 2.633 3.067.654-.577-.077-9.295zm13.571-27.473l-1.403 1.413.577 1.99 1.231.086.826 4.316.99 1.077 1.73-1.577.74-2.826-2.143-3.067-2.547-1.413zm7.573-2.817l-2.384 2.24-.086 2.576.577.749 3.21-2.74-.25-2.74-1.067-.086zm-3.296-5.315l-4.199 4.816.74 1.163 2.057.25 3.864-2.989 2.719-.5 2.47 2.903 1.893-.663.74-2.826 3.537-.086 3.459-4.152-1.807-6.892-.826-3.653 1.807-1.49-4.113-6.22-1.067.086-2.22 2.49v2.076l.99 1.163.327 5.479-2.547 3.153-1.48-.913-1.153 2.576-.25 2.404.904 1.413-.577 1.077-1.893-1.577h-1.317l-1.153.663-.904.25zm7.082-37.509l-1.317 1.163.663 2.49 1.153 1.163-.086 3.816-1.48.577-1.153 2.576 3.373 4.643 2.22-.749.413-1.163-2.384-2.154 1.48-1.912 1.566.25 1.231 1.327.086-2.74 3.373-2.74 1.893-.5-1.566-2.653-.74-1.163-1.231.827-1.067 1.327-2.306-.5-2.384-1.577-1.738-2.309zm12.418-2.576l-2.306 3.239.164 1.577 1.153-.5 2.711-3.403-1.721-.913zm3.046-4.73l-.826 2.24.086 1.49 1.403-.913 1.317-2.653v-.991l-1.979.827zm4.853-19.754l-1.067 1.327.086 2.076.99-.086 1.644-2.903-1.652-.414zm-1.971 5.066v3.653l1.153.414.826-1.327v-2.817l-1.979.078zm-33.656-13.198l-.077 5.315 6.661 10.295 2.384 8.959 4.199 7.969 1.644.577 1.403-1.163.654-1.912-6.007-6.556.164-3.403 1.317-.577.327-1.99-11.764-16.678-.904-.836zm-644.53-10.622l-.146 2.593 1.859-.431v-1.154l-1.712-1.008zm-2.857 1.154l-3.718 1.878.577 2.016 1.429-1.154 2.857-1.301-1.145-1.439zm469.823 225.122l-1.833 4.359-3.141 5.548-5.499.396-2.358 2.774.396 8.46-3.408 3.963.396 6.737 2.883 3.299 3.408-.396 3.408-2.516-.783-3.963 7.857-13.611-1.575-1.714 1.575-3.299 1.704.526.525-1.318-1.575-6.737-.921-2.774-1.058.267zm-271.674-77.146l-1.291.534.456 1.146 1.515-.991-.301-.31-.379-.379zm2.126 1.301l-.757 1.611.912 1.223 1.136-.991-1.291-1.844zm2.728 17.143l-.912.844-.99.155v1.223l1.824 1.68.757-1.223.456-1.378-.155-1.146-.981-.155zm-9.629-20.434l-2.272-.767-1.824 1.146.912 1.068 3.107.457.077-1.904zm116.44-141.067l-1.687-.956-2.272 1.439-1.953 1.809.052 1.008 2.53.319-.155 1.809-.895.905.215.586 2.53.164v2.929l3.64.637 2.16 1.223 2.427.103 4.165-2.076 3.218-4.256.052-2.877-1.953-1.654-1.635-1.387-.74.534-1.11 1.439-1.265-.164-1.265-1.387-1.635.155-2.375 1.973-1.429 1.542-.792-.689-.052-1.706.792-.534-.568-.887zm70.479-54.575l-1.42-1.43-3.15 1.533h-5.783l-.912 3.377 3.244 2.869 1.42-.207 2.031-3.48 1.721 1.232-1.222 2.455-.611 3.584 1.42 2.248 3.046-5.117 3.959-4.816-1.523-1.327-2.22-.922zm1.721-6.142l-2.539 2.352 1.523 2.352h2.737l1.119 1.533 3.348 1.74 3.855-2.248 2.642-2.248-.912-1.844-2.642-1.533-1.928 1.74-1.317-1.637-1.015.103-1.317 2.869-1.928-1.947-.207-1.327-1.42.095zm5.783 10.545l-2.031 1.844-1.721 1.327.809 1.43 1.626.508 2.642-1.232 1.222-1.533-1.119-1.844-1.429-.5zm43.75-17.471l1.48.594-1.041 1.792v2.541l-2.22 1.344h-2.366l-1.334-1.645.146-1.792 1.041-1.344h2.074l2.22-1.49zm5.628-1.645v1.792l1.48 1.197 2.074-.146 1.781-1.645v-1.197h-1.626l-1.334.448-1.041-1.197-1.334.749zm8.451.155l1.041 2.24 2.074.146 1.48-.594-.74-2.093-1.928-.448-1.928.749zm8.442-2.989l-1.626-.302-1.48 1.499.74 1.344.447 2.093 1.928-1.49.447-1.645-.456-1.499zm9.036 15.843l-.447 2.093-3.408 2.989-7.263 1.645-5.929 9.864-1.041 2.843 5.929 1.499.886-3.584 1.781-5.531 4.595-2.395 3.855-2.989 2.814-1.197h1.48v-4.032l-3.253-1.206zm-19.113 21.821l4.002.448 1.334 4.635 3.408 3.584-1.188 2.395h-2.074l-1.928-2.24-4.294-.146-1.781-2.395v-1.645l2.668-.749-.146-3.885zm62.536-50.965l-1.928-1.197h-2.22l-.447 1.344-2.366 1.344-1.781.594-.293 1.792 4.148.302 4.888-4.178zm4.587.448l-1.041 2.24-2.074-.146-3.261 2.395-.886 2.989h2.074l1.188-1.947 2.814 2.093 2.668-1.197 1.928-1.645-.74-2.541-1.041-1.792-1.626-.448zm4.303 1.645l1.041 4.187 1.626 3.885 1.781-3.136 3.408-.749v-2.24l-2.22-1.645-5.637-.302zm81.304-6.702l2.315 1.947 1.644-.681.482-2.731-3.373-2.335-2.22 1.465-5.404.491v2.438l-5.697.095v3.989l6.661 4.962 1.738-1.266-.387-3.506 4.251-1.068-.869-1.654-1.54-1.559 2.401-.586zm6.179-2.335l1.54 2.92 5.989-.681 1.644-2.145-.387-1.852-1.644-.681-1.54 1.172-4.44.973-1.162.293zm-.387 11.389l-2.995-.775-1.73 1.852-.774 2.533 4.053-.388 3.089-1.559-1.644-1.663zm-56.753 245.298l.215 2.343.215 1.706-1.265.215.637 3.834 1.902 1.068 2.952-1.706-.843-4.04.215-1.49-2.745-2.55-1.282.62zm-395.584-35.433v1.094l4.578.086 2.16-1.258.336.922 4.492 1.094 3.993 3.61-.912 1.258.164 1.43 3.33.836 3.33-1.508 1.497-1.508-2.16-1.094-11.144-6.547-3.907-.422-5.757 2.007zm16.144-6.711l-1.084-.336-.086 2.093 1.334 1.344.912-1.344-1.076-1.757zm2.16 3.274l-1.497.836 1.411 2.016.749-1.008-.663-1.844zm4.828 1.508l-1.583-.086.164 1.008 1.162 1.68.998-1.094-.74-1.508zm-.749-2.007l-2.582-1.094-.499-2.602.998-.422.998 2.016.998.758.086 1.344zm-2.496-5.289l-1.334-.336-.25-1.68-1.411-.5.912-.922 1.661.586 1.248.758-.826 2.093zm-4.329 20.141l-2.995.758v.836l1.747 1.008h1.833l1.162-1.344-1.747-1.258zm510.303 51.473l-3.588.405-2.306 1.689.955 1.93 3.907.724v.724l-2.47 2.007 1.196 4.178 1.196.078 1.033-4.101h1.91l.8 4.014 9.32 7.719.241 6.03 3.184 3.455 1.437-.078.318-21.296-5.413-3.773-5.103 3.455-1.833 1.129-3.029-1.93-.077-6.108-1.678-.25zm-635.787-253.663l-7.22 1.714 1.489 8.141 7.857 2.145.422 1.714-11.678 3.644-6.583 10.924 2.332 11.57 3.821 2.567 2.977-2.783.852 1.714-3.614 4.282-14.018 6.427-8.924 2.145-.215 3.213 20.601-5.996 8.494-2.36 7.857-9.64 8.709-5.781-4.458 7.495 4.888.646 8.287-3.644 1.489 5.996 5.731 1.284 5.946 5.781.422 4.282-.852 1.068 1.058 4.066h1.489l.215-6.857h1.695l.422 16.919 4.251-3.644-2.977-17.566h-4.458l-4.888-6.211 24.001-40.705-23.785-18.634-26.548 5.143-1.058 8.141 5.731 3.429-2.126 5.574-7.633-6.203zm95.193-7.753l.189 3.463-6.867 7.124 1.721 5.772 4.957-1.344 2.866-4.238 7.246-2.696 5.912-.388-4.578-5.005-2.289 1.732-1.721-.577-.955-2.119-2.1-2.119-4.38.396zm8.967-10.2l-1.523 2.696 7.444 2.696 2.668-4.04 1.145 2.696h1.91l3.623-4.04-4.389-1.154-1.721-1.344-2.289 2.309-6.867.181zm12.977 5.393l-5.912 2.498v1.921l7.633 2.886-1.721 1.921 1.145 2.498 4.767-2.119h4.01l1.91 3.075 3.244-3.274-.766-3.084-2.668.965-.379-3.851 1.334-2.309h-1.334l-2.1 1.344-.955.767.577 2.696-1.523 1.154-2.289-.19-.577-3.463-4.397-3.437zm7.822-5.97l-.577 1.921 3.623 1.732 2.668-1.542-.189-1.154-5.525-.956zm2.857-3.274l-2.668.965.189 1.344 5.912-.388-.189-1.344-3.244-.577zm12.788 3.274l-.379 1.344-.955 1.344v1.921l3.623-.577 3.812 3.274h1.334v-3.274l-3.812-4.238-3.623.207zm9.733 3.851l1.523 1.732-1.334 2.309.955 2.498 4.199-2.309v-1.732l-2.478-2.886-2.866.388zm5.533-4.428l.189 3.075h5.155l1.334 1.154-.189 1.344-4.578.577 3.244 4.428 4.389.767 6.101-2.696-8.778-13.284-2.668 1.732.189 2.309-3.055-1.154-1.334 1.749zm-44.456 21.752l-7.246 1.921-4.199 3.661.379 4.04 7.633 2.309-1.721 3.851-5.533-3.463-1.523 2.886 3.623 2.498-.189 4.04 5.533 1.542 6.678-.388 1.145-2.119 4.957 5.582 3.434-1.154.577-3.851 2.478 1.732.379-3.851-3.055-1.921.189-12.121-2.668-2.119-2.857 3.851-8.012-6.926zm23.278 8.468l-2.478-1.154-1.334 1.732 2.668 4.238.189 4.04 5.723-3.463v-5.005l2.1-2.119-2.1-1.542h-3.434l-1.334 3.274zm12.211-1.732l-4.01 3.274.955 4.04h2.478l1.145-2.119 1.721 1.732 1.721-.19 4.578-3.851-8.588-2.886zm-.387-6.358l-.955 1.921 4.199 1.542 1.145-1.732-4.389-1.732zm-2.478-7.314l-4.199.577-2.478 2.309 4.578.19-1.334 3.463.955 1.542 1.334-.19 3.244-5.195-2.1-2.696zm7.254-1.344l-2.289.767.379 3.075 3.812 2.498.189 1.921-1.145 1.154.577 3.851 14.689 4.807 4.01 1.344 4.01-3.463-4.767-3.851-4.389 1.154-6.101-.577-2.289-2.309-.577-6.349-3.812-1.921-2.298-2.102zm12.013 20.021l-4.199-.388-4.957 1.921-2.668 3.653.766 10.01 8.201.388 7.822 3.851 5.533 6.349 4.199-.19-1.145 5.961-3.812 6.349-4.199 1.921-3.055-.577-1.523-1.344-2.289 3.075.955 3.075 3.244.19 4.01-1.921 3.434 8.856 8.588 5.582 5.912-7.503-4.957-8.081 2.866-3.274 4.01 6.737 7.246-6.349-1.334-2.886-4.957 1.542-3.434-9.433 3.244-5.384-6.489-6.926-3.623 2.498-3.434-7.503-7.246.965-1.91-9.046-5.912 4.04-.577 5.005h-3.244l.379-4.428 4.552-6.737zm8.588 3.463l-1.523 1.542 1.334 2.119 6.299.767-4.01-4.238-2.1-.19zm-6.101-21.752v1.732l-4.199.965 1.145 1.921 4.767 1.921 5.344.577 3.812 2.696 3.812-2.119-2.668-2.696h3.434l2.1-2.309 5.155-.767v-1.154l-2.866-1.921.379-2.119 8.012 1.344 11.832-4.618-4.389-1.344 1.145-1.542h9.156l1.523-1.542-18.51-6.547-4.389-1.542-4.767 3.463-5.344-4.428-2.866-.19-.577 3.661-3.623-3.274-4.199 1.344.766 2.119 6.299 1.344-.379 3.075 3.434 2.119 8.399-2.119.189 2.886-6.867 3.274-4.199-3.274-3.812.388 3.812 5.393-1.91.965-2.866-2.498-2.1 1.344 1.91 3.653h3.244l-.766 3.463-2.668-.388-3.434-3.661-2.272.405zm-17.004 52.972l-3.64 4.583-.224 5.048 3.184-1.835h3.864l2.728 2.524 2.504-2.068-8.416-8.253zm44.327 59.614l-9.096 8.718.912 2.068 11.135 4.126 1.592-2.748-.912-4.583-3.64.457-2.048-2.292 3.408-3.437-1.351-2.309zm-137.085-105.437l1.712 2.593.861 3.463 4.286 1.077 3.003-3.239 2.573 1.301 7.289.646 5.146-2.162.861 7.133h3.003v-3.024l3.003.215 7.504 8.865 4.931 3.024-2.573 4.109 1.076 1.077 9.629 1.947.215 4.325 2.573.431.645-6.487 4.07-1.077 3.003 4.54 6.428 3.024 3.218.646 2.143-2.593.215-4.109 3.855-2.378 1.282 3.463-3.434 6.056.43 3.024 1.928-3.024 3.855-3.463.215-4.54-2.143-3.463.645-2.808 5.146-2.593 2.358 1.732.43 15.136 3.64-3.239 2.143 1.301-3.003 5.186 3.855.861 5.576-8.649 4.716 4.971-1.928 8.865-4.716 2.593-4.501-2.162-8.141 1.732.861 2.808-2.143 3.463-6.643 1.516-7.504 5.841-6.643 8.865-.861 2.808 4.501 1.732 1.712 4.325 6.213 6.272 9.862 4.325-2.143 9.941-.215 2.808 2.573 1.732 3.434-4.54.43-8.649 5.361-.215 2.573-4.971.43-7.564 6.859-13.405 8.571 3.024 4.501 6.272-1.928 6.272 3.434 1.947 8.356-5.625 2.358 15.352 7.719 9.295.215 4.755-8.571 2.162-4.07 4.325-8.571-1.947-4.286-.215-7.504 5.841 4.501-1.077 5.576-1.077 1.076 1.301-1.497 4.755.215 4.325 2.573 1.732 2.573-.646 1.291-1.947h1.712l-2.788 5.186-5.361.215-2.358 3.463h-3.003l-.861-2.593 4.286-4.325-5.146 1.732-.232-7.348-1.48-.861-4.501 1.947-.43 3.679h-10.292l-8.786 6.056-11.789 3.894-1.282-1.732 5.938-8.873-3.373-3.248-2.143-4.118-4.363-3.334-4.681-.388-8.39-5.884-60.849-10.01-1.007-4.126-5.576-5.186v-4.325l.861-3.894-.43-2.162-2.143-2.162-.43-3.463 5.576-3.894-3.434-18.591-4.716-.215-4.286-5.625 23.544-40.05zm-8.141 94.487l-.861 3.463-3.003-1.947h-1.497l-.861 3.679-10.507 23.57 2.788 20.538 3.434 1.732.645 5.625h7.074l6.859 5.186 13.502 1.301 1.497 6.918 2.143 1.516 3.003-3.024 2.358 1.077 2.143 9.941 3.64 2.378 3.003-5.625 9.216-6.702 5.998 2.808 5.146.431.215-3.239 10.714.215 2.143 2.378.43 5.401-1.282 3.024 1.497 5.186h3.218l3.218-4.971-1.282-2.378-1.282-5.186 1.928-5.841 8.786-7.564 6.643-1.947-.861-6.272 9.216-9.95 9.216-1.516-1.497-5.177 9.001-5.186v-6.918l-.861-.431-3.218 1.077-.43 4.238-10.697.129-8.382 5.574-13.158 4.307-2.1-2.576 5.972-9.046-2.952-2.817-2.005-3.825-4.156-3.343-4.518-.379-8.537-5.832-60.703-10.002zm-12.848-25.784l-1.463 2.808.508 1.99.955.594-.224.81-1.024.293.293 2.955 1.101 1.111.878-.956-1.101-2.877.654-2.292 1.609-2.145-1.17-1.99-1.015-.302zm4.836 16.833l-1.317.517 2.418 2.808.585 3.325 2.418 2.584 2.048-.37v-3.394l-2.487-1.551-3.666-3.92zm47.7 123.683l5.103 3.739 5.146-6.401-.878-1.327-1.756-.06v-3.747l-1.317-.801-3.984 1.189 1.523 3.515-3.838 3.894zm10.903-2.36l7.951-.302 2.358 2.808-1.472-.336-2.831.121-3.7 3.48-1.583 3.523-1.041-.551-.009-3.859-2.289-1.533 2.616-3.351zm-5.077 6.452l4.045 2.016-.06-3.196-2.074-1.266-1.91 2.447zm13.846-3.584l1.885.379.06 3.868-2.194 6.272-5.912-.586-1.317-3.024 1.756-3.67 3.33-3.101 2.392-.138zm-.31 11.087l1.196 2.343.972 1.292-1.308 3.885-2.496-1.757-4.079-3.739v-2.472l5.714.448zm2.762 3.989l-1.256 3.928 4.148 1.077 2.573.508.439-3.041 2.762-1.396 2.453 1.266.964 1.542 1.17-.138.921-2.8-3.064-1.266-2.323-1.266-2.323 1.585-2.762 1.396-2.823-1.137-.878-.258zm28.518-8.468l-1.773-.181-11.721 9.674-1.239 3.403-1.601.181.714 7.521-4.088 10.036 4.44 3.765 5.688.362 3.907 5.737 5.68.181-.181 4.299h2.126l2.306-7.883-2.134-2.688.534-5.014 4.44-.362-.534-11.647-9.948-3.222-2.306-6.272 5.688-7.891zm-2.814 5.289l.379 2.231 2.797.887.637-4.109 2.952-3.058 2.952 3.463 6.79 1.852 5.748-1.206 3.915 4.833 2.952 1.852-3.236 4.936 1.084 3.739-1.85 2.292-1.919 1.611-4.156-2.093-.955.965v2.981l3.038 1.447-2.237 2.421-2.237 2.421-2.952-.241-2.969-3.265-.628-12.285-10.137-3.463-1.842-5.401 1.876-2.808zm29.766 7.073l6.213 5.634-2.47 2.86-.198 1.697 3.244 3.351-.077 3.222-5.645 2.154-3.382-4.574.723-5.496-1.446-4.092 3.038-4.755zm6.953 6.039l1.756 1.611 2.719-1.689 2.478.078-.318.965-1.041 2.171-.164 5.401-4.948 2.016.241-3.463-3.193-2.981.164-1.533 2.306-2.576zm7.745.569l5.034 3.144-2.633 5.238-.955 1.206-2.797-1.611.077-5.643 1.274-2.335zm-61.899 12.104l-4.07 2.533-.293 3.756-.818 1.232 2.564 2.464-1.11 1.215.258 3.101 4.587 1.094 6.945-8.227-.017-2.869-3.33-.215-4.716-4.083zm-4.449 11.776l-1.669 1.689.112 2.696 14.578 26.603 15.137 9.769 2.341-3.928.559-8.641-1.222-5.384-4.122-6.961-2.453.784-1.11 1.232-4.896-5.617 1.222-6.625 5.68-3.704-.447-3.48-5.783-.224-3.003-5.048-1.669-.56.112 3.032-7.452 8.865-5.568-1.344-.344-3.153zm28.983 20.047l7.082-3.093 2.341.224 1.558 6.513 10.791 3.592 1.781 5.505 4.449.56 1.893 4.712-1.334 4.264-7.237.56-2.668 6.849-5.68-.112-1.781-.336-3.279 3.187-1.618-.155-5.568-12.914 1.54-2.309.542-9.132-1.377-5.436-1.437-2.481zm28.441 23.019l1.893 2.068-.224 4.376 5.456-.336 4.122 5.281-.336 4.712-2.668 4.04-5.456.224-.224-2.248 1.558-3.704-5.344-3.368h-4.449l-3.339-3.592 2.427-6.944 6.583-.508zm7.401 27.929l-1.764 1.887.731 10.148 5.542 1.611 7.048-7.073-11.557-6.573zm4.397-11.828l1.669 1.568-6.342 9.433-2.229 2.472.774 10.777 4.896 5.953-4.113 7.185-3.115 1.344h-3.563l.998 5.608-5.568 1.912 1.334 4.712-3.339 10.665 4.122 3.368-2.229 5.496-3.786 5.953 2.005 4.152-4.896.784-4.01-4.936-.671-15.377-6.23-26.12 1.885-9.132-4.01-11.673 2.668-15.153 2.453-2.92-.602-2.214 3.15-2.877 7.022.482 3.924 4.195 4.535.078 4.647 2.843-1.368 3.205.327 3.239 6.583-.31 3.081-4.712zm-17.581 82.616l-3.675 8.081 6.342.672.112-5.384-2.78-3.368zm3.339 4.04l.224 4.936 3.786-.336 3.227-2.136-5.456-1.12-1.781-1.344zm-4.587-5.307l-2.762 3.058-.336 3.592-5.344-3.032-5.68-8.193-1.669-2.92 2.341-3.032-.224-3.816-2.668-1.12-2.117-1.568.447-2.136 2.78-.784.559-12.345-4.337-2.472-2.831-64.258.731-1.275 5.542 12.793 1.773.034.577 2.042-2.358 2.86-2.711 15.395 3.855 11.854-1.781 8.977 6.282 26.396.663 15.438 4.501 5.212 4.767-.698zm-18.338-32.297l-1.11 1.68.559 2.92 1.11.112.559-3.704-1.119-1.008zm44.714-31.263l5.378-10.355.198-8.701 10.034-6.478h5.619l4.415-7.486.8-14.369-1.807-3.842 10.636-9.717.404-10.725-14.449-7.081-17.452-5.462-8.227-.81 2.212-4.652-.602-7.081-1.799-.594-2.659 5.289-1.394 1.749-3.58-1.585-12.039 4.247-4.01-5.057.645-5.281-3.786 3.859-4.182-2.257-.422.594.009 1.835 3.606 1.938-5.413 5.712-3.416-.034-3.459-3.523-3.915.121-.482 4.187 2.246 2.731-2.65 8.503-3.098.241-4.931 3.119-1.205 6.125 4.277 4.583.783-.887 3.003-.81 2.564 4.325 7.34-3.153 2.848.164 1.962 6.952 10.473 3.325 1.807 5.548 4.458.534 2.126 5.298-1.437 4.712 1.876 2.464-.275 3.67 5.026-.474 4.604 5.824-.361 4.092 2.728 2.309-6.54 9.916 11.514 6.452zm-94.384-134.779l-.043 3.144h.723l2.461-4.6h-1.669l-1.472 1.456zm527.866-180.454l1.515 5.238 3.029.87 3.029-4.798-1.73-3.274.645-2.834h4.544l-1.084 2.18.43 7.857-6.489 16.144.645 3.489-.215 5.893 12.108 17.669 2.375.655.215-14.395 2.375-2.18-2.599-5.669 2.16-2.404-4.759-6.323-2.599.215-.861-10.467 6.704-1.749.43-3.058 3.459-.87 1.945 1.749 2.375-9.597 4.105-6.978 3.244-1.749 2.814.215v-3.274l-4.544-.87-6.273-5.238 3.029-3.489-2.599-5.893 2.16-2.18 2.599 3.489 6.489 2.404 7.134.655.869-3.05-3.675-3.704 4.105-5.669-9.302-3.274-2.375 4.798-3.029-3.928-17.082-5.893-16.221 2.834-2.375 1.309v1.309l3.459 1.749-.43 4.144-6.273-2.619-13.838 5.453-2.375-5.014h-9.518l-4.329 4.583-15.352-3.489-14.053 2.834-1.73 4.359 2.16.655-.215 3.274-13.622 1.525.869 4.359-12.547-2.18 3.029-5.669-12.762-.655 1.084 5.893-4.105 1.964-3.459-3.274-14.053 2.404-5.404 5.014-.215 3.05-3.459.215-.43-3.489 11.032-9.597v-6.547l-7.134-1.964-9.302 3.05-3.89-3.928h-1.73l-2.16 4.359 1.73 1.964-12.332 6.763-10.593 8.072-6.489 8.942v3.704l6.919 2.834-3.459 2.619-7.349-2.619-3.029 2.619-4.544-5.238-.869 1.964 4.974 15.705 1.299.439 3.459-1.749 1.73 1.309v2.834l-3.244-1.309-1.945 1.525 1.299 2.834-1.084 7.417-6.704.655-.43-2.404 3.89-2.404.869-6.547-4.329-5.669-1.515-9.812-6.919-1.094-.645 3.489 1.299 1.749-2.814 2.404 1.084 6.547 4.105 1.749.869 4.798-4.113-2.619-10.593-1.964-1.299 3.489-8.433 3.05-1.299-2.18-11.032 6.108-.215 4.144-4.329.655 1.299-3.05v-3.05l-4.329-1.525-2.814 1.094 2.375 4.583 1.73 3.05v2.404l-3.244-.655-.645-.655-3.244 3.489 1.73 3.05-7.349-.215 2.375 3.058-.645 1.309h-3.89l-2.814-1.964-.645-5.453-4.544-1.749v-2.18l9.518 1.964 5.189.439 2.16-3.274-1.945-3.489-13.838-5.453-4.776 1.189-1.635 1.404.508 3.231 2.031.353-.473 5.083 6.265 14.731-4.526 7.185-.31 1.62 2.298 1.62-2.074 1.37-1.377.026.258 6.332 1.902 2.696.026 2.619 2.435.224 3.726 1.421 3.941 5.427.043 1.43-1.282 2.197 2.943-.164 2.866.827 3.872 5.488 9.535.87-.413 6.53-3.287 2.817.68 1.103-3.244 3.489-.861 3.274 1.945 2.834 6.273 2.18 2.599-1.525 16.652 6.323.645-1.749-3.459-3.274v-4.144l-2.16-.655.43-3.489 3.459-4.144-6.205-4.652.43-6.47 6.635-4.368 7.788.439 1.299 2.404 8.003.439 5.843-3.274-3.029-3.274.645-6.108 15.137-7.417 11.643 5.255 3.89-3.489 11.462 10.906 8.648-.87 3.029 3.05 8.218.87 5.404-7.417 6.919 3.058 3.675.655 3.675-3.274-3.244-2.18 2.814-4.359 8.003 2.619 1.73 3.489 3.459.215 2.16-1.525 5.843-.215.645 1.525 6.704.439 4.544-4.798 9.302 1.094 2.814-1.094.861-5.238-2.814-6.323 2.814-2.404h8.864l8.433 10.036 10.808 6.108h3.244l.43-2.619 3.89-2.404.43 14.18-3.459.215v3.489l1.945 2.404-.361 3.119 1.437.594.869-2.18 1.299.439.861.87 3.89-.87 3.89-11.346.43-14.18-4.974-11.346-6.273-7.633-3.029.439v2.404l-7.349-2.834 2.814-6.108 2.375-16.144 9.948-3.05 4.759-3.05h5.189l-1.299 1.749 1.299 2.18 4.544-4.798 2.599.215-.43-2.834-4.113-.87 2.814-10.252 3.709-3.515zm-126.991 83.684l-2.977 7.495-4.105-.215-4.329 9.485 3.675 4.686-7.573 10.467-3.89-.655-2.599 3.274.645 1.964 3.029.215 1.515 3.489 3.029.655 9.302 12v6.108l4.544 2.834 4.974-.87 6.273 3.704 7.573 2.18 3.675-.439 4.113-.439 8.648-5.669 2.814.439 1.076 2.559 2.384.715 3.244 4.798-2.16 4.798 1.299 3.274 3.675 1.309.645 3.928 4.329.439.645-1.964 6.273-3.274 3.89.215 4.544 5.014 3.029-1.309 1.945.215.869 2.404 1.515.215 2.16-3.05 8.648-3.274 7.788-9.382 2.599-8.942-.215-5.893-3.244-.655 1.945-2.18-.43-3.489-8.218-8.287v-4.144l2.375-3.05 2.375-1.094.215-2.404h-6.058l-1.084 3.274-2.814-.655-3.459-3.704 2.16-5.669 3.029-3.274 2.814.215-.43 5.014 1.515 1.309 3.675-3.704 1.299-.215-.43-2.834 3.459-4.144 2.599.215 1.515-4.798 1.773-.939.181-2.989-1.721-1.809-.146-4.721 3.313-.215-.215-12.173-2.323 1.396-.869 3.119-3.881-.009-11.247-6.332-8.124-9.804-8.244-.086-2.1 1.826 2.668 6.117-.929 5.737-3.322 1.378-1.867-.146-.138 5.677 1.945.439 3.459-1.525 4.544 2.18v2.18l-3.244.215-2.599 5.669-2.375.215-8.433 11.122-8.864 3.928-6.058.439-4.105-2.834-5.843 3.058-6.273-1.964-1.515-4.144-10.593-.655-5.619-9.158h-2.375l-1.91-4.247-2.272-.181zm2.926.086l5.008-6.651 6.015 2.783 4.088 1.094 5.008-4.6-3.399-2.507 2.237-3.162 6.678 2.36 2.315 3.799 4.182.112 2.186-1.628 4.501-.181.981 1.671 7.478.379 4.733-4.833 6.549.689-.379 6.582 2.866.655 3.52-1.602 3.726 1.844-.086.93-2.702.078-2.814 5.91-2.186.215-8.502 11.122-8.683 3.834-5.43.422-4.509-2.912-5.766 3.084-5.68-1.766-1.609-4.126-10.757-.758-5.507-9.347-2.676-.172-1.385-3.317zm89.91 20.762l1.583.663.482 5.548 3.141.181 2.96-3.472-1.024-.913.12-3.722 2.719-3.291-1.385-2.498.904-1.034.499-2.584-1.575-.715-1.342.681-1.661 5.048-2.685-.233-3.107 3.67.37 2.671zm8.657 3.386l5.318 4.342.904 4.204-.181 2.257-2.599 2.929-2.237.121-2.539-5.488-.964-2.619 1.024-.793-.241-1.094-1.265-.569 2.78-3.291zm-182.134-8.253l3.528-1.508 3.941-.138.275 6.03h-2.306l-1.764 2.877 2.306 3.834 3.399 1.921.31 2.197 1.248-.414 1.153-1.37 1.902.414.955 1.921h2.444v-2.464l-1.497-4.385-.68-3.558 4.346-1.921 5.843.956 3.666 3.696 8.287-.818 4.621 6.573 5.43.276 1.497-2.464 1.902-.414.275-2.74 2.848-.138 1.497 1.783 1.497-3.558 12.9 1.783 2.169-2.877-3.666-4.523 4.888-10.682 3.941.276 2.719-6.573-5.43-.551-3.124-3.015-8.605.999-11.084-10.725-3.907 3.472-11.85-5.384-14.535 7.124-.404 5.066 3.399 3.971-6.626 3.747-8.597-.19-1.799-2.645-6.738-.37-6.385 4.109-.138 5.617 5.946 4.781zm14.767 16.342l-.534 2.266h-3.571v3.067l3.838 2.533-1.188 3.472v1.602l1.592.267 2.117-2.8 4.767-1.068 10.189 3.868.129 2.8 5.688.534 6.351-6.676-.792-2.136-4.234-.93-11.91-7.745-.534-2.8h-4.501l-1.988 3.739h-1.988l-3.434.009zm30.179 9.881l2.65.138v-4.54l-2.513-1.465 4.234-5.341h1.721l1.721 2.007 4.501-1.732-6.222-2.136-.241-1.292-1.48.362-1.454 2.533-6.273-.207-4.604-6.521-8.089.801-3.855-3.825-5.335-.905-3.872 1.577 2.246 7.478.026 2.516 1.635.034 2.005-3.825 5.335.069.792 2.938 11.437 7.598 4.423 1.017 1.213 2.722zm1.093-6.22l3.537-4.394h1.334l.465.982-1.635 1.189v.982l1.076.775 5.172.31 1.687-.724.766.155.516 1.654 3.072.31 1.54 3.256-.465.982-.611.052-.611-1.241-1.334-.103-2.306.31-.155 2.171-2.306-.155.103-2.74-1.687-1.654-2.564 2.119.052 1.396-2.255.775h-1.334l.103-4.807-2.16-1.602zm5.697-10.88l-.267 2.18.215 1.344 7.487 2.516-6.575 2.653-.749-.62-1.42.913.069.5.757.345 4.613.121 2.341-.706 3.003-3.791 3.761.655 4.535-6.289-12.134-1.654-1.678 4.075-2.117-2.274-1.842.034zm-19.526 23.984l1.368 10.734 3.408.749.318 1.93-2.444 2.042 4.552 3.679 8.846-3.187.706-3.773 5.568-3.48 2.134-8.063 1.592-1.714-1.652-2.877 5.387-3.334-.688-.965-2.487.155-.224 2.292-3.339-.034-.06-3.058-1.076-1.284-1.807 1.645.052 1.508-2.728 1.034-5.034-.319-6.54 6.857-5.852-.534zm7.754 19.633l2.237 3.325-.215 1.714-2.977 1.18-.215 2.791h3.408l1.17-.965h6.489l5.852 5.152.749-2.472h4.363l.103-3.11-4.466-4.29.955-2.36 4.578-.319 6.17-12.879-3.408-2.679-1.274-4.506 8.296-.749-4.896-6.978-2.607-.706-1.067 1.292-.8.06-4.896 3.11 1.601 2.688-1.807 1.93-2.237 8.262-5.533 3.541-.749 3.868-8.821 3.101zm41.177 54.42l3.941-1.93 2.341-8.477-.103-10.407 13.407-14.49v-3.437l2.762-1.077-.103-3.971-2.977-5.798 1.704-3.11 3.726 3.437 4.785.215v1.93l-1.489 1.611.318.861 2.556.103.534 2.895h.749l1.919-3.437.955-9.011 3.193-2.257.103-3.11-1.274-2.472-2.022-.103-7.917 5.238.499 3.368-5.559-.017-1.962-2.404-1.067.138.361 3.343-12.022-.861-7.452-3.325-.396-4.092-4.965-3.084-.06-6.349-3.408-3.903-7.831.749.852 3.411 3.838 3.11-6.635 13.594-4.44.336-.731 1.637 4.372 4.049-.215 4.092-4.466-.069-.482 2.033 3.709-.164.103 1.611-2.659 1.396 1.704 3.222 3.296 1.077 2.022-1.499.955-2.679 1.17-.534 1.385 1.396-.422 3.437-.955 1.611.215 2.791 14.139 29.376zm.181-60.691l.396 3.679 6.953 3.153 11.144.827-.422-2.696-7.444-2.05-6.316-3.765-4.311.853zm20.834 4.755l1.334 1.826 4.509.034-.456-2.498-5.387.637zm.146 4.333l-1.127 2.042 2.926 5.565.086 4.342.534 1.163 3.434.06 1.945-1.869 1.411.853.284 2.645 1.127-.706.069-3.377-.947-.112-.594-2.869-2.392-.086-.594-1.594 1.463-1.956.026-.965h-4.251l-3.399-3.136zm29.147 43.539l-2.384-3.825 1.73-2.429-1.635-3.007-1.54-.293-.293-5.048-2.306-4.471-.671 1.068-1.54 2.619-1.928.293-.964-1.266-.482-3.403-1.446-2.722-5.886-5.557 1.446-.956.267-4.023 2.151-3.618.929-9.002 3.115-2.128.103-3.282 1.867.62 2.943 4.264-2.186 4.686 1.472 3.679 3.64 1.43.663 4.006 4.888.758-1.351 2.335-6.161 2.429-.671 3.98 4.526 5.824.189 3.11-1.058 1.068.095.973 3.373 4.954.095 5.143-.99 1.792zm.508-28.584l2.788 3.592v4.368l.964.482 4.432-2.136.869.293 5.292 6.117-.189 4.178-1.73-.293-1.54-.973-1.153.095-2.022 3.394.387 1.844 1.635.87-.095 2.042-1.153.586-3.95-2.722v-2.429l-1.635-.095-.671 1.068-.344 10.872 2.556 4.669 4.526 4.368-.189 1.266-2.41-.095-2.212-3.299h-2.315l-2.891-2.335-.869-2.429 1.248-2.042.43-1.844 1.36-2.412-.06-5.548-3.322-4.807-.138-.586 1.076-1.085-.25-3.816-4.423-5.608.516-3.231 5.482-2.317zm2.306 38.749l1.73 3.885.387 5.048 2.315 3.592 5.585 3.394 2.117.198-.387-3.498-1.833-4.462-2.685-5.712-.224.999-3.236-.146-2.323-3.343-1.446.043zm6.686-13.766l3.52 3.765 6.549-4.859.577-7.667-3.382 2.335-1.756-.982-2.384-.319-1.334-.939-.645.034-1.747 2.869.284 1.327 1.773.991-.215 2.696-1.239.749zm-4.311-31.478l-2.083 1.06-1.73 5.048 2.891 3.687-.482 4.075.482.198 4.81-2.335 6.454 7.219-.155 4.549 1.403.758 3.468-2.817-.284-2.231-10.008-9.519.095-1.456 1.248-.87-.869-2.429-4.139-.681-1.101-4.256zm8.253 35.769l1.024 1.611.189 1.844 2.694.293 3.27-4.368 3.081-.87 1.635-4.462-.766-7.185-3.175-4.368-3.348-2.679-4.26-7.323 3.055-5.117-4.372-5.022-3.502-.155-3.15 1.697.938 4.058 4.199.741 1.127 3.127-1.48.965.095.775 9.853 9.649.387 2.834-.594 8.959-6.902 4.997zm-163.159-86.398l2.814 3.679 3.511 1.62 2.16-.009 3.709-1.008.929-1.456-10.972-4.109-2.151 1.284zm12.271 4.936l4.131 5.393-1.213 1.421-2.926-.508-3.631-3.256.198-2.136 3.442-.913zm1.454-1.869l-.869 1.482 4.053 5.324 1.411-.457 2.323 2.438 1.007-4.273 2.521.405-.103-1.223-4.148-3.635-.792 2.136-5.404-2.197zm-1.515 8.813l-1.05 1.094.103 1.732 1.308 1.835 4.638 5.083-.706 2.033h-.809l-.404 2.033 2.625 3.36 2.418.207 4.845 6.711 2.719.207 2.117 1.525.103 3.05 8.373 4.885h3.124l1.919-1.628 2.418-.103 1.411 3.256 9.044 1.258.267-3.325 2.995-1.085.138-1.189-2.384-3.256-5.31-4.273 2.788-2.541-.198-1.12-3.494-.543-1.48-11.802-.172-2.714-9.475-3.627-4.199.948-2.349 2.886-2.083-.138-.602.508-4.638-.302-5.852-4.273-2.177-2.386-.998.241-1.799 2.059-3.175-.603zm-9.423-7.547l-1.919 2.033-7.056-.207-4.234-2.541-4.131-.103-4.742 3.36-4.44.207-.404 2.541h-5.043l-2.014 1.835v1.017l1.213 1.017v1.12l-.508 1.327.508 1.12 1.618-.81 1.618 1.732-.404 1.223-.602.818.904 1.017 4.44.913 3.124-1.327v-1.93l1.515.302 3.631 2.136 3.933-.612 1.712-1.628 1.11.405v1.835h1.515l1.308-2.541 11.497-1.223 5.017-.612-1.325-1.74-.026-2.352 1.007-1.206-3.666-2.946.198-2.541h-2.014l-3.339-1.637zm11.437 68.953l1.239 3.687v3.601l2.977 2.705 20.98-8.554.198-2.352-3.365-6.048-8.442 2.696-4.845 4.773-5.619-3.325-3.124 2.817zm22.71-7.228l6.359-3.67 1.127-5.384-1.394-.801.577-5.772 1.213-.706 1.299 2.042 7.736 4.049v2.248l-9.371 13.81-4.311.146-3.236-5.961zm-3.761-13.698l.749 2.998 8.485.749.594-6.151 1.635-.896.447-2.248-2.676.749-2.977 4.506-6.256.293zm-1.188-5.1l-.447 3.455 1.325 1.008 1.205-.112.447-4.35-1.041-.749-1.489.749zm-8.037-10.209l-1.936-1.051-1.342 1.353.146 2.705 3.124 1.197.009-4.204zm.611 5.229l6.032 8.417 1.945 1.551.869 3.773 9.285.732 1.05.551-1.041 4.652-6.101 3.601-8.924 2.705-4.759 4.652-5.654-3.299-3.425 2.998-4.767-7.796-3.27-1.499-1.188-1.8v-3.903l-11.901-14.404-.447-2.55h3.425l4.165-3.601.146-1.8-1.188-1.197 2.384-1.947 5.06.302 8.631 7.202 5.094-.233.327 1.258 4.251 1.637zm-32.124-20.77l-.301 2.188 2.427 1.017-.103 6.065 2.427-.052 2.427-1.835.912-.155 5.507-4.385 1.11-6.366-11.006 1.12-1.162 2.55-2.237-.146zm15.18-3.532l-1.342 6.642-5.559 4.635.353 2.188 5.43.37 8.648 7.047 4.836-.138.129-1.628 1.773-1.904 2.478 1.404.327-.31-4.793-6.384-2.272-.138-3.021-3.885.602-2.86.921-.121.318-1.266-4.113-4.333-4.716.681zm-13.261 13.568l-2.117 7.391-.095 1.129h3.33l3.726-3.291.095-1.249-1.523-1.559 2.728-2.266-.396-2.102-.749.172-2.272 1.628-2.728.146zm-2.323-7.185l.052 1.68-.706 2.55 2.427.207.155-3.618-1.928-.818zm-.757 4.842l-1.36 4.333 1.764 5.195 2.022-7.59v-1.628l-2.427-.31zm-1.816-7.081l1.058.767-3.279 3.11-1.566-.052-1.162-.818.155-1.525 2.375-.155 2.418-1.327zm-23.88-110.011l1.738-1.275-.155-1.43-1.101-.637.155-1.749h.947v-.956l-4.105-1.111-6.153.637-.628 2.705-1.42-.474-.947-1.594-3.003.155-.318 3.024-1.42.637-.792-1.594-6.316 5.091 1.265 1.43-2.366 1.111-5.37 10.665-1.893 1.275.155.956 1.893.956-.473 2.068-3.158-.164-.947-1.111-2.048 2.386-1.265.956-.318 2.231-1.101.637-2.84.637-1.42 4.462.947 7.323 1.101 3.343 1.265 1.275 2.84-.155 4.105-3.98 1.575-2.705.473 3.98 2.685-4.773.155-13.379 2.186-1.378.654-7.383 6.626-9.554 3.158-1.111 1.42-1.749 4.733 1.111 2.366 1.43.792-3.98 3.95-2.386 2.375 4.144zm-59.67 40.438l-1.575 2.386.628.956h3.631v1.594l-.947 1.275.628 3.343 2.048 3.98 1.575 3.661 2.521.956 1.101 1.912-.155 1.749-1.575.956-.155.793 1.101.637-.947 1.275-2.212.956-4.26-.474-6.635 3.024-2.212-1.111 6.316-3.661-.792-.474-3.313-.319 2.048-3.024.318-2.55 2.685-.319-.473-4.936-3.158-.155-.947-1.111.155-3.661-1.893.155 1.893-6.366 3.477-2.55 1.119 1.103zm-6.626 10.674l-2.84.319-.155 2.55 1.893 1.275 2.048-.474.792-1.43-1.738-2.24zm.938 4.376l-.783 5.169-6.945 2.55h-2.212l-1.575-1.111v-.956l3.477-2.231-.947-1.912.155-2.705 3.003.155 1.377-3.239-.181 2.877 2.332 1.852 2.298-.448zm50.092-53.386l1.687 1.559h3.158l1.738 3.343.473 5.729-4.26 3.024v3.024l-3.003 4.144-1.738.155-2.366 3.98.155 3.825 4.105 3.024-.318 1.749-1.575 2.386-2.366 2.068.155 6.849-3.631 1.275-1.265 2.705h-1.738l-.947-4.773-3.95-6.065 3.244-5.436.224-13.43 2.237-1.232.542-7.684 6.377-9.14 3.064-1.077zm7.805 10.648l1.781.784 1.101 2.068-1.101 1.43-5.525 6.048-.947 3.187 1.265 4.618 4.26 3.187 5.68-2.705 4.578-.637 4.26-6.849-3.158-7.486-3.003-7.168.473-4.618-1.893-.319-.491-3.368-2.547-4.161-2.823 1.956-1.11 4.54-2.995-1.8-4.165-1.017-.929 1.085 1.601 1.447 2.917-.052 2.349 3.799.422 6.03zm9.707 29.661l-5.895-.956.129 3.299 5.464 3.343 2.237-.655-.129-2.516-1.807-2.516zm-9.733-3.213l-1.334-.043-.774.784.559.827 1.334.086.688-.999-.473-.655zm-.129 3.515l-1.291-.129-2.323 2.783v1.301l.774.302 1.506.043 2.496-2.042.344-.698-1.506-1.559zm3.614 2.567l-1.85-.043-2.539 2.429h-2.151l.129 3.041-1.291 2.386 4.647.043 1.334-.172 1.334 1.611 3.055-.129 2.926-3.73-.172-2.214-5.421-3.222zm-.129 9.985l1.291 2.128-.516 1.697.086 1.344.473 1.611 2.668-1.516 3.313.086 2.323.956h5.895l1.721-4.126 1.033-1.559v-1.042l-3.7-5.212-3.27-1.301-2.668-.302-2.323.741.086 2.343-3.227 4.083-3.184.069zm.688 7.297l.731 1.344.172 1.43-.602 1.387-1.377 2.653-1.162.526-1.506-.655-.904.043-2.194.827-2.496-.741-4.045-2.869-3.959-2.128-1.592-2.429-.301-5.729 3.098-2.696 4.045-1.344 1.506-.172-.602 1.215.387.474 6.807.129 1.463-.043 2.41 3.696-.602 1.516.258 1.783.465 1.783zm-54.3 26.051h-10.963l-2.212-.999-1.067.078-1.291 2.688.456 2.765 4.191.388.534 1.766-1.824 10.295.077 1.844 2.969 1.611 3.425.233 6.85-1.689 3.348-4.221.077-4.299 5.938-5.376.301-2.378-5.404-.078-5.404-2.628zm-14.999 5.376l-.534 7.452-1.523 1.378.155.844 1.067 1.766-.688 2.154 1.145.388 2.668-.31-.155-2.154 1.747-9.985-.379-1.378-3.502-.155zm25.963 5.143l-1.368.465.301 1.232h1.979l.835-.922-1.747-.775zm14.165-3.299l-2.28 1.154.301 4.454 1.824.31 1.368-1.309v-4.221l-1.213-.388zm.232-5.531l-1.678 1.689-.155 1.533 1.368.844.534-.078.301-2.231-.37-1.757zm-14.999-24.345l-1.902.465-3.804 4.144-1.145.078-1.523-1.077-.99.233-.757 2.378-5.559.155.155 1.232 3.804 2.533 4.415 3.532-.077 4.221-2.358 4.144 5.103 2.455 5.18.155 1.601-1.844 3.27.078.912.844 3.27-.233 1.678-2.154-2.134-2.533-.155-1.611.456-1.766-1.067-1.533-1.824.534-.232-1.378 4.036-4.454v-2.688l-2.668-1.533-1.368-.233-6.316-4.144zm8.339-8.985l-3.898 1.921.826.749.086 1.921-.826-.164-.912-1.421-2.177 3.455 3.348.698 1.248 1.318.663.017.439-2.981 2.108-.887-.904-4.626zm-7.297 7.107l-.551 1.378 5.921 3.911 1.704.405.06-1.852-1.489-1.671h-.912l-1.248-1.421-3.485-.749zm8.201-7.443l3.072-.5v-2.171l2.573-.422 1.411 1.421 1.489.164 2.323-1.008 2.074.586 1.824 1.585.25 5.936 1.824 2.429-2.401.336-3.984 2.507.336.836 3.563 3.343-.25 1.671-3.313 1.671-3.072.086-.749 1.585h-1.575l-.749-1.671-2.737-.672-.086-2.757-2.323-1.585.25-2.007-1.575-2.171.413-2.843 2.151-1.008-.74-5.341zm4.845-14.111l-3.571 3.954-.129 2.576 1.626 4.247 2.547-.482-.318-3.472 1.756-1.964-.034-1.542-1.239-3.213-.637-.103zm4.019 7.012l-.8-.034-1.05.965.129 1.508 2.487.069.129-1.706-.895-.801zm14.672-8.158l-1.816 1.439.912 2.111 1.609-1.568-.706-1.981zm-22.013 33.779l-3.752 3.997.077.405 1.54-.482 1.385 1.93 2.341-.827 1.618 1.258.663-.379 1.996-3.136-.508-.482-1.971-.052-.955-1.956-2.435-.276zm13.356-3.885h3.8120000000000003l2.039 1.456 3.778-3.144-3.666-2.619-3.631-1.757-2.487.448-3.373 2.171 3.528 3.446zm6.377 1.947l.594.526.077.896 6.566-.146 4.853-2.093-.077-2.128-.929.414-1.334-.715-.818-.034-2.151.861-2.926-.706-3.855 3.127zm-13.089 2.576l-.559 1.163.482.827 2.005-.414h1.704l1.85 1.568 3.933-.715 2.891-1.723.74-1.163-.112-1.499-2.599-1.947-3.485.034-.293 1.981-3.666 1.792-2.891.095zm13.863-.448l-.998 1.568.077 2.395 1.592.818 4.896.146 6.824-5.755.034-1.275-.74-.37-4.931 2.24-6.755.233zm-1.669 2.059l-2.186 1.309-4.079.896.818 2.36 2.857.034 2.633-2.205-.043-2.395zm.706 2.731l-3.038 2.507h-3.081l-.37 2.171 1.411.37.706-1.051 1.11.973.886 3.101 6.084 2.843.602-.689-6.17-6.375.628-1.163 5.86-.224.594-1.869-3.821.112-1.403-.706zm-.706 3.256l-.318.526 5.774 5.961 2.117-3.119-.077-1.232-1.85-2.248-5.645.112zm-19.388-1.689l-.534 1.353.146 1.473 2.057 2.404 3.236-.112 7.143 8.305 4.458 1.292 2.633 2.49.628 5.677 1.411-.827 1.222-3.093-.301-2.223 2.091-.19.301-1.258-5.895-2.826-5.594-5.505-2.229-3.291-.542-3.127 2.848-.681-.731-2.059-1.747-1.473-1.506-.069-2.1.577-1.979 2.774-1.196.793-1.85-1.137-1.971.732zm17.357 22.433l-1.248-.672-4.26.672.146 1.154 3.829 1.93.577.629 1.007.146-.052-3.859zm.146 6.418l-1.437.293.052 1.594 1.291.431.577-.482-.482-1.835zm19.758-49.38l-2.496 1.404.62 2.653-2.306 4.867.017 2.145 1.084.689 6.953.345 1.945-1.611 2.083.698 2.986 3.989-2.186 3.928 2.599.758 3.399-3.92 1.945.353 1.807 1.258-1.592 2.102 2.151 3.36h2.289l1.179-2.24 2.427-.491.069-1.818-4.509-.698.138-1.956h4.372l4.716-3.782 2.083-1.818.344-5.737-9.294-.836-3.812-5.384-2.633-.905-3.193.138-1.437 3.558-6.54.086-2.126-.982-3.081-.155zm4.458 12.543l2.668 4.109-.224 2.326.955.043 2.263-3.834-2.719-3.377-1.54-.637-1.403 1.37zm-7.375-.095l-.224 1.275-4.983 4.152 4.165 6.117 2.668 1.869h4.802l1.583-1.327 2.126-.276 1.583.956 2.805-3.196-.542-1.602-2.848-.732-1.945-.095.095-2.74-2.582-4.066-6.704-.336zm-6.263 16.926l-.039-.805-1.136-1.597-1.839 2.603.361 1.094 1.498.276 1.154-1.57zm.558-10.949l-1.765 1.328h-.861l-.585 1.825 2.083 2.422.138 1.921-.293.416 1.408 1.98.049 1.05 1.014.983 3.304-1.008-.276-4.705-4.215-6.212zm5.068 6.763l.138 4.29 1.446 3.015 5.43.095 2.444-1.732 2.401-.956-.585-2.74.542-1.465-1.222-.637-1.678.138-1.317 1.327-5.525.043-2.074-1.378zm-6.385 6.349v3.971l1.136 2.145.818-.095 1.403-2.559-.818-1.146-.318-2.834-1.084-1.008-1.136 1.525zm5.938-1.508l-2.9.956.138 2.464.68.87 3.442-1.602-1.36-2.688zm-3.623 8.262l-.095 1.146 3.984 2.007 1.902.732-.998 1.051-2.22.224-.318 1.008.766 1.732 2.487 1.327 1.084.095.138-2.972 1.626-1.964-4.44-5.255.585-1.783 1.041-.043 1.583 1.275.998-.5.318-1.783 4.664.043.181-2.74-1.945 1.37-5.705-.138-3.709 1.921-1.928 3.248zm14.035-6.806l-.138 3.058 2.668-.818 1.222-.818-.361-1.327-1.265-1.008-2.126.913zm-5.387 17.996l1.403.043.585.87h2.039l1.36-.5.456.551-.904 1.189-3.984.138-.723-.956-.766-.457.534-.879z" fill="#DAD9D8"/></svg>
